<svg xmlns="http://www.w3.org/2000/svg" viewBox="0 0 255.79 255.79"><defs><style>.cls-1{fill:#f1ebcc;}.cls-2{fill:#3f3a8f;}.cls-3{fill:#3d84b8;}</style></defs><g id="Capa_2" data-name="Capa 2"><g id="Capa_6" data-name="Capa 6"><rect class="cls-1" width="255.79" height="255.79"/></g><g id="Capa_4" data-name="Capa 4"><path class="cls-2" d="M132.42,0c.33,1.23.71,2.45,1,3.69A7.58,7.58,0,0,0,136,8.07c.87.73,1.72,1.51,2.52,2.33,1.25,1.29,1.45,2.26.81,3.41a3.56,3.56,0,0,1-4,2A20.79,20.79,0,0,1,132,14.57a9.24,9.24,0,0,0-8.32.06,18.15,18.15,0,0,1-3.1,1.18,3.56,3.56,0,0,1-4.35-2.92,3.62,3.62,0,0,1,.89-2.26,16.81,16.81,0,0,1,2.56-2.42,7.8,7.8,0,0,0,2.81-4.8c.2-1.15.56-2.28.85-3.41Z"/><path class="cls-2" d="M81.26,0c.32,1.16.73,2.31.94,3.49A7.72,7.72,0,0,0,85,8.2c.82.7,1.63,1.42,2.39,2.19,1.19,1.22,1.38,2.17.76,3.31a3.62,3.62,0,0,1-3.93,2.13,21.54,21.54,0,0,1-3.38-1.28,9.16,9.16,0,0,0-8.06,0,19.77,19.77,0,0,1-3.38,1.29c-2.29.58-4.78-1.68-4.21-3.77A3.6,3.6,0,0,1,66,10.56a32.67,32.67,0,0,1,2.65-2.48,7.46,7.46,0,0,0,2.59-4.39c.24-1.24.62-2.46.93-3.69Z"/><path class="cls-2" d="M183.58,0a35.93,35.93,0,0,1,.93,3.49,7.72,7.72,0,0,0,2.77,4.71c.82.69,1.63,1.42,2.38,2.19,1.21,1.23,1.43,2.3.81,3.42a3.6,3.6,0,0,1-4,2,14.74,14.74,0,0,1-3.11-1.17c-3.29-1.72-6.42-1.12-9.58.38-1.36.65-2.75,1.18-4.37.46a3,3,0,0,1-1.32-4.66A26.3,26.3,0,0,1,171,8.07a7.5,7.5,0,0,0,2.61-4.48c.22-1.21.6-2.39.91-3.59Z"/><path class="cls-2" d="M234.74,0c.32,1.23.7,2.45,1,3.69a7.53,7.53,0,0,0,2.6,4.38c.87.73,1.72,1.5,2.52,2.32,1.16,1.21,1.4,2.39.79,3.44a3.53,3.53,0,0,1-4,2,32.73,32.73,0,0,1-3.92-1.52,8.86,8.86,0,0,0-7.4.21A28.47,28.47,0,0,1,223,15.78a3.67,3.67,0,0,1-4.41-2.5,2.63,2.63,0,0,1,.83-2.67A25.2,25.2,0,0,1,222,8.27a7.8,7.8,0,0,0,2.88-4.86c.21-1.15.57-2.28.86-3.41Z"/><path class="cls-2" d="M30.1,0c.33,1.23.7,2.45,1,3.69a7.56,7.56,0,0,0,2.6,4.37c.87.74,1.73,1.51,2.52,2.33,1.28,1.33,1.47,2.33.77,3.5a3.56,3.56,0,0,1-4,1.92,14.14,14.14,0,0,1-2.74-1c-3-1.47-5.88-1.74-8.88-.1a12.85,12.85,0,0,1-3,1.13A3.65,3.65,0,0,1,13.92,13a2.61,2.61,0,0,1,.89-2.37,25.2,25.2,0,0,1,2.51-2.34A7.85,7.85,0,0,0,20.2,3.41c.21-1.15.56-2.28.85-3.41Z"/><path class="cls-2" d="M0,49.19c2.89-.1,4.48,1.12,5.12,3.91.44,1.9.65,3.9,2.17,5.36,1.09,1,2.24,2,3.29,3.09,1.27,1.29,1.47,2.36.8,3.5A3.6,3.6,0,0,1,7.25,67c-1.09-.32-2.1-.9-3.19-1.23-1.33-.4-2.7-.67-4.06-1Z"/><path class="cls-2" d="M0,151.51c2.87-.11,4.48,1.12,5.12,3.91.44,1.9.65,3.9,2.17,5.36,1.09,1,2.24,2,3.29,3.09,1.27,1.3,1.47,2.35.8,3.5a3.59,3.59,0,0,1-4.12,1.9c-1.1-.32-2.11-.89-3.2-1.22-1.33-.4-2.7-.67-4.06-1Z"/><path class="cls-2" d="M255.79,64.74c-1.41.35-2.84.67-4.24,1.09-1,.3-2,.83-3,1.12a3.7,3.7,0,0,1-4.31-2.38,2.45,2.45,0,0,1,.61-2.55,23.78,23.78,0,0,1,2.6-2.52,8,8,0,0,0,3-5.3A11.3,11.3,0,0,1,250.7,53c.66-2.72,2.27-3.94,5.09-3.85Z"/><path class="cls-2" d="M255.79,167.05c-1.41.36-2.84.68-4.24,1.1-1,.3-2,.83-3,1.12a3.39,3.39,0,0,1-3.87-1.64,2.92,2.92,0,0,1,.61-3.82,34.29,34.29,0,0,1,2.6-2.37,7.74,7.74,0,0,0,2.62-5c0-.35.13-.7.21-1,.66-2.73,2.27-4,5.09-3.86Z"/><path class="cls-2" d="M61,255.79a7.93,7.93,0,0,1,3.53-6.15,2.46,2.46,0,0,1,4.06,2,25.21,25.21,0,0,1-.51,4.12Z"/><path class="cls-2" d="M85.4,255.79a35.67,35.67,0,0,1-.55-3.83,2.56,2.56,0,0,1,1.51-2.64,2.76,2.76,0,0,1,3.13.74,8.25,8.25,0,0,1,3,5.73Z"/><path class="cls-2" d="M163.31,255.79a7.89,7.89,0,0,1,3.54-6.14,2.47,2.47,0,0,1,4.07,2.11,26.46,26.46,0,0,1-.52,4Z"/><path class="cls-2" d="M34.24,255.79a33.88,33.88,0,0,1-.55-3.73,2.65,2.65,0,0,1,1.51-2.74,2.8,2.8,0,0,1,3.21.8,8.15,8.15,0,0,1,2.91,5.67Z"/><path class="cls-2" d="M238.87,255.79a36.45,36.45,0,0,1-.55-3.73,2.64,2.64,0,0,1,1.52-2.74,2.79,2.79,0,0,1,3.2.8,8.2,8.2,0,0,1,2.92,5.67Z"/><path class="cls-2" d="M9.84,255.79a7.89,7.89,0,0,1,3.53-6.15c1.89-1.34,4-.23,4.07,2.12a24.17,24.17,0,0,1-.52,4Z"/><path class="cls-2" d="M112.16,255.79a7.89,7.89,0,0,1,3.53-6.15c1.9-1.34,4-.23,4.07,2.12a24.17,24.17,0,0,1-.52,4Z"/><path class="cls-2" d="M136.55,255.79c-.19-1.24-.48-2.48-.55-3.73a2.62,2.62,0,0,1,1.52-2.73,2.81,2.81,0,0,1,3.21.79,8.19,8.19,0,0,1,2.91,5.67Z"/><path class="cls-2" d="M187.71,255.79a33.85,33.85,0,0,1-.54-3.73,2.61,2.61,0,0,1,1.5-2.74,2.82,2.82,0,0,1,3.22.8,8.28,8.28,0,0,1,2.91,5.67Z"/><path class="cls-2" d="M214.47,255.79a8,8,0,0,1,3.53-6.15c1.9-1.34,4-.23,4.08,2.12a26.46,26.46,0,0,1-.52,4Z"/><path class="cls-2" d="M118.26,0A19.6,19.6,0,0,1,118,2.32a1.87,1.87,0,0,1-2.57,1.55A6.85,6.85,0,0,1,111.17,0Z"/><path class="cls-2" d="M15.94,0a17.7,17.7,0,0,1-.25,2.32,1.87,1.87,0,0,1-2.57,1.55A6.85,6.85,0,0,1,8.85,0Z"/><path class="cls-2" d="M220.57,0a16.14,16.14,0,0,1-.25,2.32,1.87,1.87,0,0,1-2.57,1.55A6.84,6.84,0,0,1,213.49,0Z"/><path class="cls-2" d="M195.78,0a6.92,6.92,0,0,1-4.26,3.87,1.89,1.89,0,0,1-2.58-1.55A16.29,16.29,0,0,1,188.7,0Z"/><path class="cls-2" d="M93.46,0A6.9,6.9,0,0,1,89.2,3.86a1.88,1.88,0,0,1-2.57-1.54A16.3,16.3,0,0,1,86.38,0Z"/><path class="cls-2" d="M169.41,0a14.71,14.71,0,0,1-.24,2.32,1.91,1.91,0,0,1-2.67,1.54A7,7,0,0,1,162.33,0Z"/><path class="cls-2" d="M67.1,0a16.28,16.28,0,0,1-.25,2.33,1.87,1.87,0,0,1-2.57,1.55A6.92,6.92,0,0,1,60,0Z"/><path class="cls-2" d="M144.62,0a7.07,7.07,0,0,1-4.16,3.86,1.93,1.93,0,0,1-2.67-1.54A16.3,16.3,0,0,1,137.54,0Z"/><path class="cls-2" d="M42.3,0a7,7,0,0,1-4.16,3.86,1.93,1.93,0,0,1-2.67-1.54A16.3,16.3,0,0,1,35.22,0Z"/><path class="cls-2" d="M246.94,0a7.06,7.06,0,0,1-4.16,3.86,1.93,1.93,0,0,1-2.67-1.54A13.84,13.84,0,0,1,239.86,0Z"/><path class="cls-3" d="M0,116.48l3.79,2.72c.47-1.26.92-2.37,1.27-3.51.07-.23-.19-.66-.42-.86-1.53-1.37-3.09-2.71-4.64-4v-.59l7.46,6.6-.14.18-1.93-1.46c-.4,1.26-.8,2.42-1.09,3.61-.06.21.25.61.5.79,3.18,2.36,6.38,4.69,9.57,7,.26.19.51.41.76.61l-.15.2L4.08,120,0,131.44v-1c.32-.87.67-1.74,1-2.62.83-2.51,1.66-5,2.46-7.55a1,1,0,0,0-.14-.91c-1.07-.81-2.19-1.54-3.29-2.3Z"/><path class="cls-3" d="M0,218.8l3.79,2.72c.47-1.27.91-2.38,1.27-3.52a1,1,0,0,0-.34-.8c-1.56-1.38-3.14-2.74-4.72-4.1v-.59l7.46,6.6-.14.18-1.93-1.47c-.39,1.27-.8,2.43-1.09,3.62-.06.21.26.61.5.79,3.15,2.34,6.33,4.65,9.49,7,.29.21.56.44.85.66l-.15.21L4.08,222.3C2.7,226.16,1.35,230,0,233.76v-1c.31-.84.65-1.68.93-2.53.85-2.54,1.69-5.08,2.5-7.64a1,1,0,0,0-.14-.91c-1.07-.81-2.19-1.54-3.29-2.3Z"/><path class="cls-3" d="M0,14.17l3.79,2.72c.47-1.27.91-2.38,1.27-3.52a1,1,0,0,0-.34-.8C3.16,11.18,1.58,9.83,0,8.46V7.87l7.45,6.6-.13.17L5.39,13.19C5,14.44,4.6,15.6,4.3,16.79c-.06.21.24.62.48.79,3.18,2.35,6.38,4.68,9.57,7,.27.2.53.42.79.63l-.16.21L4.08,17.67,0,29.12v-1c.31-.85.65-1.68.93-2.54.85-2.54,1.69-5.08,2.5-7.63a1.05,1.05,0,0,0-.14-.92C2.22,16.24,1.1,15.51,0,14.76Z"/><path class="cls-3" d="M0,183.58l.47,1.94,3-1.79c1.29-.77,2.6-1.51,3.85-2.35a2,2,0,0,0,.75-1.11c.33-1.46.55-2.94.91-4.41l-.44,4.77,9.7-5.68.11.18-6.3,3.9c-1,.6-2,1.13-2.92,1.78a1.93,1.93,0,0,0-.75,1.13c-.43,2.53-.79,5.08-1.35,7.59l.86-7.94c-1.91,1.12-3.61,2.3-5.45,3.16S.38,186.57.9,188.33a17.54,17.54,0,0,1,.55,4.36L.22,186.84a3.16,3.16,0,0,0-.22-.5Z"/><path class="cls-3" d="M0,81.26.47,83.2l3.12-1.84c1.24-.74,2.45-1.51,3.7-2.22a1.56,1.56,0,0,0,.89-1.27A42.37,42.37,0,0,1,9,73.43l-.45,4.88,9.7-5.68.11.17c-2.05,1.27-4.08,2.55-6.13,3.81-1,.63-2.1,1.2-3.1,1.88a1.94,1.94,0,0,0-.74,1.14C8,82.15,7.63,84.7,7.07,87.21l.85-7.94c-1.9,1.13-3.6,2.3-5.44,3.17S.38,84.26.9,86a17.62,17.62,0,0,1,.55,4.37L.22,84.52A2.72,2.72,0,0,0,0,84Z"/><path class="cls-2" d="M46.83,255.79c1.43-2.75,7.49-2.61,8.66,0Z"/><path class="cls-2" d="M149.15,255.79c1.47-2.79,7.54-2.57,8.65,0Z"/><path class="cls-2" d="M200.31,255.79c1.54-2.85,7.59-2.52,8.65,0Z"/><path class="cls-2" d="M98,255.79c1.52-2.83,7.56-2.54,8.66,0Z"/><path class="cls-3" d="M76.54,255.79c-2.81-4.21-5.64-8.42-8.44-12.65-2.37-3.61-4.7-7.24-7-10.86a4.39,4.39,0,0,1-.68-1.37c1.05,1.51,2.08,3,3.14,4.54,1.6,2.29,3.28,4.54,4.82,6.87,1.67,2.53,3.21,5.16,4.84,7.73,1.23,1.93,2.51,3.83,3.76,5.74Z"/><path class="cls-3" d="M127.7,255.79c-2.89-4.32-5.79-8.63-8.66-13-1.8-2.71-3.55-5.45-5.32-8.17A14.26,14.26,0,0,1,112.3,232c1.35,2,2.71,3.95,4,5.95q5.52,8.34,11,16.69a9.81,9.81,0,0,1,.55,1.13Z"/><path class="cls-3" d="M247.55,191.05c0,.25-.06.56,0,.75q4,6.16,8,12.32a.88.88,0,0,0,.15.12v.39c-1.25-1.78-2.54-3.54-3.75-5.36q-5.78-8.69-11.49-17.43a1.69,1.69,0,0,1-.34-.93c.92,1.33,1.85,2.66,2.75,4,1.25,1.84,2.46,3.7,3.73,5.53C246.87,190.71,247.26,190.85,247.55,191.05Z"/><path class="cls-3" d="M230,255.79q-2.49-3.71-5-7.42Q220,240.69,215,233a2.15,2.15,0,0,1-.36-1q2.53,3.71,5,7.42t5,7.42q2.63,4,5.21,8a6.92,6.92,0,0,1,.39.88Z"/><path class="cls-3" d="M25.38,255.79c-1.68-2.53-3.37-5-5.05-7.59q-4.18-6.3-8.35-12.63a.64.64,0,0,1-.06-.55,5.47,5.47,0,0,1,.51.57c1.28,1.9,2.56,3.8,3.82,5.71q4.38,6.63,8.73,13.28a10.47,10.47,0,0,1,.6,1.21Z"/><path class="cls-3" d="M247.56,88.73c0,.2-.14.46-.06.58q4.13,6.31,8.29,12.61v.4c-1.32-1.89-2.66-3.77-4-5.67-1.7-2.46-3.43-4.9-5.07-7.4a49.29,49.29,0,0,1-2.86-5.07l1.39,1.94c.52.75,1,1.51,1.59,2.23C247,88.54,247.32,88.61,247.56,88.73Z"/><path class="cls-3" d="M169.39,241.05a7.07,7.07,0,0,1,2,2.55q4,6.09,8,12.19H179c-2.94-4.38-5.89-8.75-8.81-13.14a12.08,12.08,0,0,1-.76-1.63Z"/><path class="cls-2" d="M0,253.83c1.76,0,3.33.34,4.33,2H0Z"/><path class="cls-2" d="M251.46,255.79a4.62,4.62,0,0,1,4.33-2v2Z"/><path class="cls-3" d="M255.79,185.15,254.11,176l.22,0q.73,3.31,1.46,6.64Z"/><path class="cls-3" d="M255.79,82.84l-1.68-9.13.22,0c.49,2.2,1,4.41,1.46,6.61Z"/><path class="cls-3" d="M255.79,186.34l-5.32,3.06c.05-.11.07-.28.16-.33,1.71-1,3.44-2.09,5.16-3.13Z"/><path class="cls-3" d="M255.79,84l-5.32,3.06c.05-.11.07-.28.16-.33,1.71-1,3.44-2.09,5.16-3.13Z"/><path class="cls-2" d="M25.79,100.29c3.06.14,4.51,1.36,5,4.57a8.91,8.91,0,0,0,3.42,6,16.57,16.57,0,0,1,1.94,1.81c1.24,1.32,1.45,2.26.8,3.41a3.57,3.57,0,0,1-4,2A16.91,16.91,0,0,1,29.89,117a9.17,9.17,0,0,0-8.58,0,16.94,16.94,0,0,1-2.93,1.1,3.67,3.67,0,0,1-4.4-2.51,2.54,2.54,0,0,1,.77-2.59,19.82,19.82,0,0,1,2.49-2.36,7.83,7.83,0,0,0,3-5.31c.05-.36.15-.7.21-1.06C21,101.27,23.19,100.29,25.79,100.29Z"/><path class="cls-2" d="M84.42,118.28c-.88-.34-2.24-.79-3.53-1.38a9.29,9.29,0,0,0-8.24,0,18.61,18.61,0,0,1-3.28,1.25c-2.29.57-4.78-1.69-4.22-3.77a3.71,3.71,0,0,1,.88-1.49,28.09,28.09,0,0,1,2.58-2.42,7.62,7.62,0,0,0,2.69-4.54,11.53,11.53,0,0,1,1.13-3.61c1.25-2.09,4.79-2.63,7.17-1.38a4.24,4.24,0,0,1,2.31,3.53,9.45,9.45,0,0,0,4.09,7,9.52,9.52,0,0,1,1.41,1.36c.83.9,1.48,1.92.83,3.18A4.06,4.06,0,0,1,84.42,118.28Z"/><path class="cls-2" d="M186.77,118.29c-.92-.35-2.26-.77-3.51-1.37a9.35,9.35,0,0,0-8.33,0,17.26,17.26,0,0,1-3.29,1.25c-2.28.55-4.76-1.75-4.17-3.82a3.49,3.49,0,0,1,.84-1.41,32.79,32.79,0,0,1,2.65-2.49,7.55,7.55,0,0,0,2.65-4.45,12.88,12.88,0,0,1,1-3.55c1-1.81,3.74-2.59,6-2a4.33,4.33,0,0,1,3.49,3.65c.06.36.17.7.22,1.06a8.17,8.17,0,0,0,3.31,5.68,16.92,16.92,0,0,1,2,1.88c.86.88,1.52,1.91.89,3.17A4.14,4.14,0,0,1,186.77,118.29Z"/><path class="cls-2" d="M76.74,202.62c2.47,0,4.73,1.07,5.15,4.06,0,.35.18.7.22,1a8.08,8.08,0,0,0,3.22,5.42,18.61,18.61,0,0,1,2,1.86c1.21,1.24,1.44,2.31.83,3.43a3.62,3.62,0,0,1-4,2,18.42,18.42,0,0,1-3.2-1.2,9.19,9.19,0,0,0-8.49,0,15.77,15.77,0,0,1-3.11,1.17c-2.37.58-5-1.89-4.16-3.94a8.81,8.81,0,0,1,2.21-2.69c1.34-1.29,2.94-2.36,3.5-4.26.29-1,.47-2,.71-2.95C72.31,203.81,73.82,202.63,76.74,202.62Z"/><path class="cls-2" d="M230.34,100.3c3.32.24,4.69,1.5,5.13,4.56a8.68,8.68,0,0,0,3.42,6,15.73,15.73,0,0,1,1.93,1.81c1.25,1.32,1.45,2.26.81,3.41a3.58,3.58,0,0,1-4,2,19.31,19.31,0,0,1-3.2-1.21A9.22,9.22,0,0,0,226,117a16.16,16.16,0,0,1-2.93,1.1,3.67,3.67,0,0,1-4.41-2.49,2.54,2.54,0,0,1,.77-2.59,19.16,19.16,0,0,1,2.49-2.36,7.88,7.88,0,0,0,3-5.21,18.71,18.71,0,0,1,.46-2.1C225.84,101.58,228.09,100.22,230.34,100.3Z"/><path class="cls-2" d="M58.79,169.4a34.39,34.39,0,0,1-3.32-1.26,9.32,9.32,0,0,0-8.58,0,17.13,17.13,0,0,1-3.11,1.17,3.69,3.69,0,0,1-4.24-2.63,2.43,2.43,0,0,1,.66-2.35,23.87,23.87,0,0,1,2.61-2.52,7.81,7.81,0,0,0,3-5.21l.06-.39c.72-4,4-5.85,7.88-4.23a3.75,3.75,0,0,1,2.31,2.61,10.32,10.32,0,0,1,.37,1.53,8.76,8.76,0,0,0,3.76,6.28,13.69,13.69,0,0,1,1.58,1.47c.88.92,1.48,1.93.88,3.26A4.1,4.1,0,0,1,58.79,169.4Z"/><path class="cls-2" d="M109.8,67.06c-.75-.29-2-.71-3.28-1.29a9.18,9.18,0,0,0-8.31,0,21.54,21.54,0,0,1-3.1,1.19,3.62,3.62,0,0,1-4.33-2.33A2.32,2.32,0,0,1,91.37,62a26.11,26.11,0,0,1,2.69-2.57A7.83,7.83,0,0,0,97,54.26c0-.16,0-.33.07-.49.79-4.05,4.27-5.79,8-4a3.62,3.62,0,0,1,2.23,2.92,10.76,10.76,0,0,0,4.79,8.06,6.61,6.61,0,0,1,.82.85,2.74,2.74,0,0,1,.88,3.26A4.13,4.13,0,0,1,109.8,67.06Z"/><path class="cls-2" d="M230.26,202.61c3.12,0,4.63,1.34,5.22,4.58a8.58,8.58,0,0,0,2.25,5c1,1,2.12,1.85,3.1,2.85,1.26,1.29,1.44,2.26.79,3.42a3.58,3.58,0,0,1-3.9,2,19.92,19.92,0,0,1-3.3-1.24,9.25,9.25,0,0,0-8.4,0,17.23,17.23,0,0,1-3,1.15,3.66,3.66,0,0,1-4.39-2.53,2.57,2.57,0,0,1,.78-2.59,20.58,20.58,0,0,1,2.5-2.35,7.81,7.81,0,0,0,3-5.31c0-.36.16-.7.22-1.06C225.6,203.64,227.81,202.65,230.26,202.61Z"/><path class="cls-2" d="M153.6,49.14c2.48.06,4.63,1.17,5,4.08a20.57,20.57,0,0,0,.6,2.67c.51,1.81,1.86,3,3.21,4.11.57.49,1.12,1,1.64,1.55,1.21,1.26,1.43,2.34.75,3.52A3.51,3.51,0,0,1,160.91,67a16.19,16.19,0,0,1-3-1.12,9.34,9.34,0,0,0-8.76,0,16.19,16.19,0,0,1-3,1.12,3.7,3.7,0,0,1-4.21-2.53,2.44,2.44,0,0,1,.64-2.45,23.9,23.9,0,0,1,2.61-2.52,8,8,0,0,0,3-5.3c.05-.33.14-.64.19-1C148.82,50.11,151.15,49.14,153.6,49.14Z"/><path class="cls-2" d="M25.76,202.62c2.94.11,4.37,1.26,5,4.14.4,1.89.7,3.82,2.18,5.25,1.06,1,2.2,2,3.23,3,1.3,1.33,1.48,2.31.8,3.5a3.54,3.54,0,0,1-4,1.93,17.65,17.65,0,0,1-3.1-1.18,9.27,9.27,0,0,0-8.5,0,16.34,16.34,0,0,1-3,1.14,3.64,3.64,0,0,1-4.4-2.77,2.62,2.62,0,0,1,.85-2.39,23,23,0,0,1,2.5-2.34,7.82,7.82,0,0,0,3-5.24c0-.35.16-.7.21-1.05C20.94,203.56,23.33,202.6,25.76,202.62Z"/><path class="cls-2" d="M204.67,151.45c2.54,0,4.74,1.14,5.08,4a10,10,0,0,0,4.48,7.38,6.85,6.85,0,0,1,1,1c1.28,1.39,1.51,2.43.8,3.59a3.56,3.56,0,0,1-4.15,1.85,21.55,21.55,0,0,1-3-1.17,9.12,9.12,0,0,0-8.31,0,21.59,21.59,0,0,1-3.1,1.2,3.63,3.63,0,0,1-4.32-2.35,2.32,2.32,0,0,1,.59-2.62,26.11,26.11,0,0,1,2.69-2.57,7.85,7.85,0,0,0,2.93-5.16c.05-.32.14-.64.19-1C200,152.6,202.05,151.48,204.67,151.45Z"/><path class="cls-2" d="M161.25,169.4a24.52,24.52,0,0,1-2.92-1,9.73,9.73,0,0,0-9.39-.11,13.58,13.58,0,0,1-2.75,1,3.66,3.66,0,0,1-4.29-2.41,2.45,2.45,0,0,1,.62-2.54,23,23,0,0,1,2.61-2.52,7.85,7.85,0,0,0,3-5.21l.06-.39c.73-4,3.93-5.81,7.78-4.27a3.75,3.75,0,0,1,2.4,2.65,24.38,24.38,0,0,1,.56,2.39,7.34,7.34,0,0,0,2.62,4.57c.89.76,1.75,1.56,2.58,2.37A2.67,2.67,0,0,1,165,167,4.36,4.36,0,0,1,161.25,169.4Z"/><path class="cls-2" d="M128.08,100.3c3.07.11,4.53,1.33,5.06,4.53a9,9,0,0,0,3.48,6.13,14.61,14.61,0,0,1,1.87,1.74c1.27,1.34,1.47,2.32.78,3.5a3.53,3.53,0,0,1-4,1.92,21.46,21.46,0,0,1-3.29-1.26,9.19,9.19,0,0,0-8.24.08,18.87,18.87,0,0,1-3,1.15,3.93,3.93,0,0,1-4.47-2.73,2.57,2.57,0,0,1,.85-2.39,21.34,21.34,0,0,1,2.5-2.35,7.83,7.83,0,0,0,3-5.24c0-.35.15-.7.21-1.06C123.26,101.21,125.68,100.28,128.08,100.3Z"/><path class="cls-2" d="M102.39,151.46c2.56,0,4.6,1.17,5.09,4,.33,2,.67,4,2.25,5.42,1.06,1,2.16,1.92,3.16,2.94,1.28,1.31,1.48,2.36.81,3.51a3.6,3.6,0,0,1-4.13,1.9,18,18,0,0,1-3-1.16,9.8,9.8,0,0,0-9,.15,13,13,0,0,1-3.32,1.06,3.18,3.18,0,0,1-3.23-2.1,2.52,2.52,0,0,1,.63-3.05c1-1,1.91-2,2.94-2.85a8.62,8.62,0,0,0,2.61-5.45C97.67,152.83,99.29,151.44,102.39,151.46Z"/><path class="cls-2" d="M126.71,202.93a7.55,7.55,0,0,1,2-.24c2.47.38,3.64,1.17,4.28,3.58a3.82,3.82,0,0,1,.15.67,9.22,9.22,0,0,0,4.16,6.9,9.76,9.76,0,0,1,1.26,1.23c1.21,1.31,1.41,2.27.74,3.43a3.57,3.57,0,0,1-3.92,2,18.73,18.73,0,0,1-3.2-1.2,9.22,9.22,0,0,0-8.49,0,16.9,16.9,0,0,1-3,1.14,3.52,3.52,0,0,1-4.37-2.85,3.56,3.56,0,0,1,.83-2.28,13.89,13.89,0,0,1,2.48-2.36,8,8,0,0,0,3-5.32,5.13,5.13,0,0,1,.34-1Z"/><path class="cls-2" d="M182.44,218.78l-1.61-.37a8.85,8.85,0,0,0-5.55.67,29.66,29.66,0,0,1-3.56,1.37c-2.33.6-4.85-1.7-4.25-3.82a3.55,3.55,0,0,1,.85-1.4c.86-.9,1.78-1.73,2.72-2.55a7.56,7.56,0,0,0,2.57-4.39,12.89,12.89,0,0,1,1-3.55c1-1.8,3.73-2.57,6-2a4.36,4.36,0,0,1,3.49,3.66c.1.58.28,1.15.37,1.73a7.27,7.27,0,0,0,2.56,4.5,4.61,4.61,0,0,1,.63.81Z"/><path class="cls-2" d="M45.06,66.46c-2.21,1-3.52.79-4.91-1a2.39,2.39,0,0,1,0-3.38,17.77,17.77,0,0,1,2.59-2.54,8.36,8.36,0,0,0,3.18-5.66,5.13,5.13,0,0,1,1.47-3.44c.62-.53,1.24-1.18,2.21-.89l6.11,6.15c-.12.1-.27.19-.38.3-2.5,2.51-5,5-7.5,7.55C46.87,64.52,46,65.5,45.06,66.46Z"/><path class="cls-2" d="M206.78,49.63A3.22,3.22,0,0,1,209.47,52a19.91,19.91,0,0,1,.65,2.77,7.26,7.26,0,0,0,2.41,4.26,36.6,36.6,0,0,1,3.12,3c1.08,1.18,1,2.43-.16,3.68s-2.59,1.74-3.77,1c-2.09-2.07-4.2-4.12-6.27-6.21-1.56-1.57-3.07-3.2-4.61-4.81.15-.17.28-.36.44-.52Z"/><path class="cls-2" d="M200.84,55.69c1.54,1.61,3,3.24,4.61,4.81,2.07,2.09,4.18,4.14,6.27,6.21a11.7,11.7,0,0,1-1.58-.36c-1.23-.44-2.4-1-3.65-1.38a8.57,8.57,0,0,0-5.89.74A27.91,27.91,0,0,1,197.42,67a3.64,3.64,0,0,1-4.36-2.52c-.12-.36.09-.84.15-1.27,1.51-1.48,3-3,4.53-4.46,1-1,1.95-2,2.93-3Z"/><path class="cls-2" d="M45.06,66.46c.91-1,1.81-1.94,2.75-2.88,2.49-2.53,5-5,7.5-7.55.11-.11.26-.2.38-.3l.18,0,1.51,1.57c1,1,1.91,2,2.88,3.06a18.64,18.64,0,0,1,2.09,2.18,2.75,2.75,0,0,1,.39,2c-.56,2.14-2.77,3.1-5,2.3a24.3,24.3,0,0,1-2.35-1,9.18,9.18,0,0,0-8.31,0C46.41,66,45.72,66.22,45.06,66.46Z"/><path class="cls-2" d="M220.54,103.16a2.8,2.8,0,0,1,0,.29c-.11,1-.2,2.1-1.24,2.62a2.9,2.9,0,0,1-3-.56,7.4,7.4,0,0,1-3.56-6.87c.06-1.18.34-2.31,1.58-2.81a2.92,2.92,0,0,1,3.21.85A9.19,9.19,0,0,1,220.54,103.16Z"/><path class="cls-2" d="M171,150.06a7.58,7.58,0,0,1-4.56,7.13,2.07,2.07,0,0,1-3.11-1.58c-.67-2.76,1.13-6.94,3.6-8.36a2.54,2.54,0,0,1,4,2.09C171,149.64,171,149.93,171,150.06Z"/><path class="cls-2" d="M187.13,150a6.9,6.9,0,0,1,.06-.86,2.5,2.5,0,0,1,3.93-1.93c2.43,1.29,4.35,5.62,3.7,8.31-.42,1.75-1.59,2.4-3.23,1.63A7.59,7.59,0,0,1,187.13,150Z"/><path class="cls-2" d="M220.56,205.49c0,.28,0,.51-.06.74-.33,2.29-1.89,3.06-3.87,1.83a7.48,7.48,0,0,1-3.91-7.17,2.78,2.78,0,0,1,1.55-2.73,2.88,2.88,0,0,1,3.22.81A9.22,9.22,0,0,1,220.56,205.49Z"/><path class="cls-2" d="M8.08,201.34c0-.22,0-.45,0-.68.21-2.43,2.09-3.39,4.18-2.16,2.38,1.41,4.13,5.56,3.48,8.24-.41,1.7-1.56,2.34-3.16,1.59A7.43,7.43,0,0,1,8.08,201.34Z"/><path class="cls-2" d="M118.24,205.48a7.12,7.12,0,0,1-.06.76c-.34,2.3-1.9,3-3.88,1.81a7.47,7.47,0,0,1-3.9-7.08c.06-1.19.33-2.3,1.57-2.82a2.89,2.89,0,0,1,3.21.83A9.22,9.22,0,0,1,118.24,205.48Z"/><path class="cls-2" d="M84.8,47.94c0-1.32.18-2.63,1.54-3.24s2.6.07,3.57,1.11c2,2.11,3.14,4.51,2.56,7.47a2,2,0,0,1-3.07,1.6A7.53,7.53,0,0,1,84.8,47.94Z"/><path class="cls-2" d="M68.67,150.18a7.54,7.54,0,0,1-4.52,7A2.08,2.08,0,0,1,61,155.56c-.65-2.79,1.17-6.94,3.65-8.33C66.84,146,68.66,147.33,68.67,150.18Z"/><path class="cls-2" d="M136,150.22c0-.23,0-.46,0-.69a2.82,2.82,0,0,1,1.46-2.5,2.69,2.69,0,0,1,3,.53,8.61,8.61,0,0,1,3.14,5.28,8.49,8.49,0,0,1,0,2.8c-.29,1.63-1.56,2.2-3.1,1.56A7.47,7.47,0,0,1,136,150.22Z"/><path class="cls-2" d="M33.65,47.73a8.65,8.65,0,0,1,.05-.88,2.5,2.5,0,0,1,3.93-2c2.56,1.37,4.44,5.78,3.67,8.59a2.07,2.07,0,0,1-3,1.43A7.58,7.58,0,0,1,33.65,47.73Z"/><path class="cls-2" d="M171,48a7.41,7.41,0,0,1-4.49,6.79c-1.59.8-2.81.14-3.22-1.61a8.72,8.72,0,0,1,3.61-8.27A2.54,2.54,0,0,1,171,47C171,47.31,171,47.61,171,48Z"/><path class="cls-2" d="M118.23,103.32c0,.11,0,.34,0,.56-.32,2.31-1.87,3.1-3.85,1.88a7.46,7.46,0,0,1-3.93-7.26A2.68,2.68,0,0,1,112,95.82a2.87,2.87,0,0,1,3.13.82A9.22,9.22,0,0,1,118.23,103.32Z"/><path class="cls-2" d="M246.11,52v.4c-.15,2.49-1.86,3.44-4,2.11a7.5,7.5,0,0,1-3.83-7.31,2.81,2.81,0,0,1,1.43-2.52,2.6,2.6,0,0,1,2.93.45A9,9,0,0,1,246.11,52Z"/><path class="cls-2" d="M196.57,99a7.54,7.54,0,0,1-4.14,6.82c-1.86,1.06-3.25.33-3.64-1.77-.47-2.56,1.39-6.62,3.62-7.93,1.93-1.13,3.69-.34,4.09,1.87A8.54,8.54,0,0,1,196.57,99Z"/><path class="cls-2" d="M196.53,201.44a7.37,7.37,0,0,1-4.05,6.69c-1.89,1.11-3.31.37-3.69-1.79-.45-2.52,1.37-6.52,3.58-7.85,2-1.21,3.84-.33,4.16,2A8,8,0,0,1,196.53,201.44Z"/><path class="cls-2" d="M94.22,201.47a7.35,7.35,0,0,1-4.17,6.71c-1.84,1-3.17.3-3.56-1.77-.49-2.56,1.33-6.6,3.58-7.94,2-1.18,3.84-.29,4.14,2A8.18,8.18,0,0,1,94.22,201.47Z"/><path class="cls-2" d="M17.49,150.27A7.38,7.38,0,0,1,13.25,157c-1.79,1-3.07.32-3.46-1.66a7.18,7.18,0,0,1,1.1-5.24,12.42,12.42,0,0,1,2-2.48,2.67,2.67,0,0,1,3-.68,2.75,2.75,0,0,1,1.58,2.51A5.19,5.19,0,0,1,17.49,150.27Z"/><path class="cls-2" d="M15.9,103.22a2.54,2.54,0,0,1,0,.39c-.14,1-.24,2-1.27,2.48a2.84,2.84,0,0,1-2.86-.5,7.52,7.52,0,0,1-3.68-7.11c.1-1.77,1.13-3,2.59-2.8a3.92,3.92,0,0,1,1.95.77A9.61,9.61,0,0,1,15.9,103.22Z"/><path class="cls-2" d="M222.11,150.26a7.37,7.37,0,0,1-4.31,6.82c-1.7.88-3,.23-3.36-1.62A6.93,6.93,0,0,1,215.6,150a10.47,10.47,0,0,1,2.65-2.78c1.9-1.31,3.65.1,3.86,2.12A8.61,8.61,0,0,1,222.11,150.26Z"/><path class="cls-2" d="M169.38,205.19c0,.34,0,.41,0,.47-.11,1.05-.15,2.19-1.24,2.72s-2.2,0-3.17-.66a7.43,7.43,0,0,1-3.4-6.95,2.78,2.78,0,0,1,1.47-2.59,2.67,2.67,0,0,1,3,.56A9,9,0,0,1,169.38,205.19Z"/><path class="cls-2" d="M119.8,150.28a7.41,7.41,0,0,1-4.42,6.85c-1.6.81-2.84.15-3.23-1.58a7.19,7.19,0,0,1,1.06-5.44,12.14,12.14,0,0,1,2.05-2.47,2.69,2.69,0,0,1,3-.67,2.78,2.78,0,0,1,1.56,2.53A6.77,6.77,0,0,1,119.8,150.28Z"/><path class="cls-2" d="M17.48,48a7.4,7.4,0,0,1-4.06,6.69c-2,1.15-3.6.25-3.72-2.09a8.53,8.53,0,0,1,3.55-7.48c1.88-1.44,4-.37,4.23,2C17.5,47.37,17.48,47.67,17.48,48Z"/><path class="cls-2" d="M222.11,48A7.38,7.38,0,0,1,218,54.65c-1.92,1.11-3.37.32-3.7-1.91C214,50.26,215.8,46.32,218,45a2.54,2.54,0,0,1,4.14,2A8,8,0,0,1,222.11,48Z"/><path class="cls-2" d="M247.74,99.11a7.56,7.56,0,0,1-4.48,6.88c-1.59.8-2.82.13-3.23-1.62-.64-2.69,1.21-6.91,3.61-8.26,1.91-1.08,3.62-.28,4,1.88C247.72,98.37,247.71,98.77,247.74,99.11Z"/><path class="cls-2" d="M238.28,150.14c0-.19,0-.45,0-.71.21-2.3,2.07-3.29,4.06-2.16,2.44,1.38,4.25,5.6,3.59,8.36-.4,1.65-1.56,2.24-3.1,1.49A7.32,7.32,0,0,1,238.28,150.14Z"/><path class="cls-2" d="M145.42,99.06a7.56,7.56,0,0,1-4.49,6.93c-1.54.78-2.78.13-3.2-1.54-.69-2.7,1.16-7,3.61-8.35,1.87-1,3.55-.3,4,1.81A8.66,8.66,0,0,1,145.42,99.06Z"/><path class="cls-2" d="M43.1,99.1A7.55,7.55,0,0,1,38.69,106c-1.64.84-2.89.18-3.3-1.61-.62-2.65,1.19-6.82,3.55-8.21C40.87,95,42.64,95.81,43,98A9,9,0,0,1,43.1,99.1Z"/><path class="cls-2" d="M59.23,98.82a3.91,3.91,0,0,1,.05-.74c.37-2.26,2.17-3.08,4.13-1.9a8.75,8.75,0,0,1,3.5,8.22c-.39,1.73-1.63,2.39-3.23,1.59A7.61,7.61,0,0,1,59.23,98.82Z"/><path class="cls-2" d="M145.42,201.37a7.57,7.57,0,0,1-4.41,6.9c-1.63.85-2.89.18-3.3-1.6-.63-2.69,1.23-6.91,3.64-8.25,1.87-1,3.54-.3,4,1.81A8.81,8.81,0,0,1,145.42,201.37Z"/><path class="cls-2" d="M43.11,201.33a7.61,7.61,0,0,1-4.43,6.95c-1.63.83-2.88.16-3.3-1.63-.62-2.69,1.25-6.9,3.66-8.24,1.85-1,3.48-.32,3.94,1.74A11.32,11.32,0,0,1,43.11,201.33Z"/><path class="cls-2" d="M247.73,201.51a7.49,7.49,0,0,1-4.46,6.79c-1.59.8-2.82.14-3.24-1.6-.65-2.67,1.2-6.9,3.6-8.27,2-1.12,3.74-.23,4.06,2C247.73,200.8,247.72,201.13,247.73,201.51Z"/><path class="cls-2" d="M9.64,141.8a8,8,0,0,1-3.41,6.11c-1.72,1.32-3.41.65-3.87-1.48a8.82,8.82,0,0,1,2-7.57,4.17,4.17,0,0,1,1.67-1.15,2.11,2.11,0,0,1,2.84,1.18A22.18,22.18,0,0,1,9.64,141.8Z"/><path class="cls-2" d="M112,244.06a8,8,0,0,1-3.45,6.19c-1.7,1.28-3.38.61-3.82-1.45a8.76,8.76,0,0,1,2-7.66,4.15,4.15,0,0,1,1.67-1.14,2.09,2.09,0,0,1,2.77,1.17A21.59,21.59,0,0,1,112,244.06Z"/><path class="cls-2" d="M92.68,154.56a14.56,14.56,0,0,1-.49,1.87,1.91,1.91,0,0,1-2.43.88,7.2,7.2,0,0,1-3.71-2.9A6.91,6.91,0,0,1,84.91,149a2.51,2.51,0,0,1,4.2-1.57A9.23,9.23,0,0,1,92.68,154.56Z"/><path class="cls-2" d="M9.64,39.48a8,8,0,0,1-3.41,6.11c-1.72,1.33-3.41.66-3.86-1.48a8.76,8.76,0,0,1,2.08-7.64,4,4,0,0,1,1.6-1.08,2.11,2.11,0,0,1,2.84,1.18A22.18,22.18,0,0,1,9.64,39.48Z"/><path class="cls-2" d="M195.09,39.43a19.29,19.29,0,0,1,.31-2c.59-2.25,2.64-2.91,4.35-1.35a8.47,8.47,0,0,1,2.68,5.81,8.67,8.67,0,0,1-.18,2.33c-.43,2-2,2.69-3.75,1.45A7.54,7.54,0,0,1,195.09,39.43Z"/><path class="cls-2" d="M253.65,247.32a15.29,15.29,0,0,1-.26,1.63c-.47,1.9-2,2.49-3.68,1.42a7.69,7.69,0,0,1-3.15-8.34c.6-2.23,2.64-2.9,4.36-1.32A9,9,0,0,1,253.65,247.32Z"/><path class="cls-2" d="M214.28,244.1a8,8,0,0,1-3.4,6.11c-1.72,1.34-3.42.68-3.88-1.45a8.78,8.78,0,0,1,2.08-7.65,3.92,3.92,0,0,1,1.59-1.08,2.12,2.12,0,0,1,2.85,1.17A23.29,23.29,0,0,1,214.28,244.1Z"/><path class="cls-2" d="M92.72,141.65a16.93,16.93,0,0,1,.58-2.46A2.35,2.35,0,0,1,97,138c2.45,1.52,4,6.55,2.77,9.16a2,2,0,0,1-3.13,1.06A7.66,7.66,0,0,1,92.72,141.65Z"/><path class="cls-2" d="M202.53,247.5a15,15,0,0,1-.65,2.26,1.82,1.82,0,0,1-2.62.93,7.37,7.37,0,0,1-3.53-9.48,2.35,2.35,0,0,1,3.81-.69C201.57,242.23,202.33,244.55,202.53,247.5Z"/><path class="cls-2" d="M49.05,247.11c-.1.61-.14,1.24-.29,1.83a2.23,2.23,0,0,1-3.68,1.43,7.73,7.73,0,0,1-3.14-8.43c.62-2.12,2.55-2.71,4.28-1.32A9.52,9.52,0,0,1,49.05,247.11Z"/><path class="cls-2" d="M9.64,244.11a8,8,0,0,1-3.4,6.11c-1.73,1.33-3.42.67-3.87-1.47a8.73,8.73,0,0,1,2.08-7.64A4,4,0,0,1,6,240a2.13,2.13,0,0,1,2.85,1.18A21.4,21.4,0,0,1,9.64,244.11Z"/><path class="cls-2" d="M100.21,42.75A12.78,12.78,0,0,1,99.64,45a1.93,1.93,0,0,1-2.93,1,7.39,7.39,0,0,1-3.46-9,2.37,2.37,0,0,1,4-1C99.25,37.61,100,39.91,100.21,42.75Z"/><path class="cls-2" d="M253.68,42.41c-.09.64-.14,1.3-.29,1.92-.48,1.9-2.06,2.48-3.69,1.39a7.71,7.71,0,0,1-3.14-8.35c.6-2.18,2.55-2.8,4.31-1.36A9.48,9.48,0,0,1,253.68,42.41Z"/><path class="cls-2" d="M202.53,145.2a13.72,13.72,0,0,1-.66,2.25,1.83,1.83,0,0,1-2.63.92,7.37,7.37,0,0,1-3.5-9.49,2.34,2.34,0,0,1,3.81-.66C201.58,139.92,202.33,142.24,202.53,145.2Z"/><path class="cls-2" d="M100.21,247.37a12,12,0,0,1-.5,2.12,2,2,0,0,1-3,1.09,7.41,7.41,0,0,1-3.42-9,2.35,2.35,0,0,1,3.95-1.06C99.25,242.21,100,244.53,100.21,247.37Z"/><path class="cls-2" d="M94.31,99.15a7.7,7.7,0,0,1-4.17,6.68,2.28,2.28,0,0,1-2.76.06,3.59,3.59,0,0,1-.93-3.36,8.67,8.67,0,0,1,2.35-5.15,7.61,7.61,0,0,1,2.09-1.56A2.33,2.33,0,0,1,94,97.42,12.24,12.24,0,0,1,94.31,99.15Z"/><path class="cls-2" d="M53.32,42.71a9.51,9.51,0,0,1,2.2-6.16,3,3,0,0,1,2.71-1.3,2.48,2.48,0,0,1,2.13,2,7.75,7.75,0,0,1-3.18,8.49,2.22,2.22,0,0,1-3.62-1.44A15.44,15.44,0,0,1,53.32,42.71Z"/><path class="cls-2" d="M53.32,247.36a9.7,9.7,0,0,1,2.19-6.17,4.1,4.1,0,0,1,.56-.54c1.73-1.45,3.69-.84,4.31,1.33a7.74,7.74,0,0,1-3.19,8.41A2.22,2.22,0,0,1,53.57,249,14,14,0,0,1,53.32,247.36Z"/><path class="cls-2" d="M49.05,144.81c-.1.61-.15,1.23-.29,1.83a2.22,2.22,0,0,1-3.68,1.41,7.64,7.64,0,0,1-3.19-8.14,2.65,2.65,0,0,1,1.88-2.28,2.86,2.86,0,0,1,2.81,1A9.73,9.73,0,0,1,49.05,144.81Z"/><path class="cls-2" d="M163,141.79a7.69,7.69,0,0,1-3.38,6.17,2.21,2.21,0,0,1-3.76-1.34,8.71,8.71,0,0,1,2.2-8,2.66,2.66,0,0,1,2.81-1,2.63,2.63,0,0,1,1.86,2.31C162.87,140.56,162.93,141.18,163,141.79Z"/><path class="cls-2" d="M188.61,192.93a7.71,7.71,0,0,1-3.43,6.22,2.2,2.2,0,0,1-3.71-1.31,8.5,8.5,0,0,1,2.27-8.14c1.72-1.83,3.94-1.14,4.57,1.3C188.47,191.63,188.51,192.29,188.61,192.93Z"/><path class="cls-2" d="M60.7,141.77A7.65,7.65,0,0,1,57.26,148a2.19,2.19,0,0,1-3.69-1.36,8.7,8.7,0,0,1,2.18-8,2.66,2.66,0,0,1,2.8-1,2.61,2.61,0,0,1,1.88,2.3C60.55,140.53,60.61,141.15,60.7,141.77Z"/><path class="cls-2" d="M151.35,247.19c-.08.51-.13,1.17-.28,1.8-.47,1.85-2.06,2.51-3.61,1.39a7.42,7.42,0,0,1-3.28-8,4.54,4.54,0,0,1,.25-.84,2.36,2.36,0,0,1,3.9-1C150.37,242.17,151.16,244.47,151.35,247.19Z"/><path class="cls-2" d="M253.66,145a17.08,17.08,0,0,1-.28,1.74,2.21,2.21,0,0,1-3.63,1.38,7.72,7.72,0,0,1-3.18-8.41c.62-2.17,2.63-2.83,4.31-1.29A9,9,0,0,1,253.66,145Z"/><path class="cls-2" d="M155.59,42.43a9.62,9.62,0,0,1,2.23-5.85,3.08,3.08,0,0,1,2.49-1.34,2.5,2.5,0,0,1,2.39,2.09,7.78,7.78,0,0,1-3.17,8.42,2.23,2.23,0,0,1-3.66-1.49C155.73,43.67,155.68,43.05,155.59,42.43Z"/><path class="cls-2" d="M86.29,90.58a7.64,7.64,0,0,1-3.4,6.22,2.2,2.2,0,0,1-3.75-1.33,8.51,8.51,0,0,1,2.26-8c1.71-1.85,3.95-1.2,4.58,1.23A17.63,17.63,0,0,1,86.29,90.58Z"/><path class="cls-2" d="M188.61,90.61a7.7,7.7,0,0,1-3.43,6.22,2.19,2.19,0,0,1-3.71-1.3,8.5,8.5,0,0,1,2.27-8.14c1.71-1.83,3.94-1.15,4.57,1.29C188.47,89.31,188.51,90,188.61,90.61Z"/><path class="cls-2" d="M220.67,90.49a17.65,17.65,0,0,1,.32-1.93c.62-2.28,2.7-2.92,4.42-1.27A8.4,8.4,0,0,1,228,93a8.89,8.89,0,0,1-.2,2.52,2.19,2.19,0,0,1-3.74,1.34A7.59,7.59,0,0,1,220.67,90.49Z"/><path class="cls-2" d="M169.41,103.12c-.14,1.12-.09,2.39-1.31,3s-2.26,0-3.24-.76a7.48,7.48,0,0,1-3.3-6.62c.05-1.23.35-2.37,1.62-2.89A3.18,3.18,0,0,1,166.62,97a9.37,9.37,0,0,1,2.68,5.21C169.34,102.52,169.37,102.81,169.41,103.12Z"/><path class="cls-2" d="M125.79,93.68c-.1.61-.14,1.23-.3,1.83-.5,1.88-2.11,2.5-3.69,1.34a7.36,7.36,0,0,1-3.36-6.78,7.78,7.78,0,0,1,.37-1.91,2.33,2.33,0,0,1,3.76-1.26A8.23,8.23,0,0,1,125.71,93c0,.23,0,.46,0,.69Z"/><path class="cls-2" d="M16,192.91a18.7,18.7,0,0,1,.47-2.39,2.35,2.35,0,0,1,3.83-1.27,8,8,0,0,1,3.07,6,7.72,7.72,0,0,1-.2,2.53c-.46,1.95-2.07,2.51-3.74,1.37A8,8,0,0,1,16,192.91Z"/><path class="cls-2" d="M86.29,192.9a7.7,7.7,0,0,1-3.4,6.23,2.21,2.21,0,0,1-3.75-1.35,8.51,8.51,0,0,1,2.26-8.05c1.71-1.85,4-1.19,4.58,1.24C86.14,191.6,86.19,192.25,86.29,192.9Z"/><path class="cls-2" d="M220.67,192.8a17.47,17.47,0,0,1,.32-1.92c.62-2.28,2.7-2.92,4.43-1.27a8.43,8.43,0,0,1,2.59,5.66,8.89,8.89,0,0,1-.2,2.52,2.2,2.2,0,0,1-3.75,1.34A7.63,7.63,0,0,1,220.67,192.8Z"/><path class="cls-2" d="M155.59,247a9.61,9.61,0,0,1,2.32-5.92,2.8,2.8,0,0,1,2.92-1.18,2.7,2.7,0,0,1,1.94,2.35,7.78,7.78,0,0,1-3.19,8.06,2.23,2.23,0,0,1-3.7-1.38C155.73,248.33,155.68,247.67,155.59,247Z"/><path class="cls-2" d="M67.15,192.91a18.51,18.51,0,0,1,.53-2.48,2.39,2.39,0,0,1,3.79-1.22c2.44,1.63,3.84,6.39,2.68,9.11-.65,1.54-2.17,1.91-3.63.77A7.84,7.84,0,0,1,67.15,192.91Z"/><path class="cls-2" d="M67.14,90.61a17.94,17.94,0,0,1,.57-2.56,2.38,2.38,0,0,1,3.75-1.17c2.46,1.63,3.88,6.51,2.67,9.2a2,2,0,0,1-3.25.9A7.69,7.69,0,0,1,67.14,90.61Z"/><path class="cls-2" d="M169.47,192.82a19,19,0,0,1,.52-2.38,2.39,2.39,0,0,1,3.79-1.23c2.46,1.61,3.88,6.51,2.66,9.19a2,2,0,0,1-3.25.89A7.66,7.66,0,0,1,169.47,192.82Z"/><path class="cls-2" d="M49,42.66a12.58,12.58,0,0,1-.27,1.66c-.54,2-1.86,2.5-3.66,1.38a7.56,7.56,0,0,1-3.16-8.31c.58-2.19,2.59-2.89,4.28-1.38A9,9,0,0,1,49,42.66Z"/><path class="cls-2" d="M35.11,192.92a7.54,7.54,0,0,1-3.32,6.16c-1.69,1.31-3.37.67-3.83-1.42a8.71,8.71,0,0,1,2.22-7.89,2.74,2.74,0,0,1,2.82-1,2.63,2.63,0,0,1,1.86,2.3C35,191.68,35,192.3,35.11,192.92Z"/><path class="cls-2" d="M239.75,193a7.59,7.59,0,0,1-3.27,6.1c-1.7,1.36-3.42.71-3.89-1.42a8.7,8.7,0,0,1,2.18-7.81,2.74,2.74,0,0,1,2.89-1,2.62,2.62,0,0,1,1.84,2.32C239.63,191.72,239.67,192.34,239.75,193Z"/><path class="cls-2" d="M169.52,90.49c.1-.64.17-1.29.3-1.93.5-2.42,3.14-2.75,4.61-1.13A8.87,8.87,0,0,1,176.85,93a8.65,8.65,0,0,1-.19,2.43c-.46,2-2.14,2.67-3.71,1.41C171,95.23,169.49,93.25,169.52,90.49Z"/><path class="cls-2" d="M137.44,90.65a7.61,7.61,0,0,1-3.29,6.09c-1.71,1.36-3.42.69-3.88-1.45a8.7,8.7,0,0,1,2.2-7.8,2.73,2.73,0,0,1,2.8-1,2.54,2.54,0,0,1,1.89,2.26C137.29,89.36,137.35,90,137.44,90.65Z"/><path class="cls-2" d="M35.2,90.71a8.05,8.05,0,0,1-3.36,6,2.38,2.38,0,0,1-2.56.5A2.63,2.63,0,0,1,27.94,95,8.6,8.6,0,0,1,29.78,88a4.81,4.81,0,0,1,1.74-1.35,2.16,2.16,0,0,1,3,1.28A22.34,22.34,0,0,1,35.2,90.71Z"/><path class="cls-2" d="M214.21,39.47c0,3-1.8,4.85-4,6.45a1.88,1.88,0,0,1-2.89-.82,7.33,7.33,0,0,1,.42-6.62,8.48,8.48,0,0,1,1.92-2.56,2.37,2.37,0,0,1,4,1.16A17.11,17.11,0,0,1,214.21,39.47Z"/><path class="cls-2" d="M239.59,90.54c.29,2.65-1.16,4.45-3,6a2.53,2.53,0,0,1-2.61.71,2.72,2.72,0,0,1-1.49-2.57,8.62,8.62,0,0,1,2.06-6.84,4.61,4.61,0,0,1,2.25-1.38c1.45-.34,2.74,1.12,2.86,3A7.92,7.92,0,0,1,239.59,90.54Z"/><path class="cls-2" d="M16.06,90.14a14.48,14.48,0,0,1,.45-2,2.36,2.36,0,0,1,3.73-1.24c1.8,1.19,2.43,3.11,2.91,5.06a5.88,5.88,0,0,1-.1,3.86c-.73,1.67-2.1,2.13-3.57,1.06A8.16,8.16,0,0,1,16.06,90.14Z"/><path class="cls-2" d="M67.1,205.44c-.16,1.18-.12,2.46-1.38,3s-2.26-.11-3.16-1c-1.42-1.35-3-2.58-3.21-4.73a9.16,9.16,0,0,1,.06-2.72,2.31,2.31,0,0,1,3.66-1.66,8.22,8.22,0,0,1,3.79,5.49A13.48,13.48,0,0,1,67.1,205.44Z"/><path class="cls-2" d="M108,148.1c-1.68.88-2.93.28-3.34-1.63a8.79,8.79,0,0,1,2-7.66,3.91,3.91,0,0,1,1.5-1.06,2.17,2.17,0,0,1,3,1.19,6.47,6.47,0,0,1-.73,6.67Z"/><path class="cls-2" d="M144.47,144.23a6.74,6.74,0,0,1,0-5.07,2.36,2.36,0,0,1,3.69-1.14c2.48,1.61,3.94,6.53,2.73,9.19-.5,1.09-1.13,1.44-2.12,1.17Z"/><path class="cls-2" d="M194.21,49.19a5.17,5.17,0,0,1,.33,4.87A1.9,1.9,0,0,1,192,55a7.47,7.47,0,0,1-4.68-8.43c.32-1.52,1.29-2.2,2.42-1.88C191.2,46.18,192.7,47.69,194.21,49.19Z"/><path class="cls-2" d="M66.71,44.66a2.37,2.37,0,0,1,1.91,2.16,7.68,7.68,0,0,1-4.41,8c-1.65.73-2.94.15-3.19-1.62A15.44,15.44,0,0,1,61.26,50a5.87,5.87,0,0,0,.61-.48Q64.3,47.09,66.71,44.66Z"/><path class="cls-2" d="M119.62,49a11.4,11.4,0,0,1-.4,1.88,7.46,7.46,0,0,1-4,4,2,2,0,0,1-3.1-1.58,7,7,0,0,1,1.14-5.6,21.92,21.92,0,0,1,2.39-2.64Z"/><path class="cls-2" d="M140.05,45.34c.17,0,.4-.13.48-.06,2.17,1.81,3.79,5.27,3.11,8-.39,1.61-1.61,2.3-3.1,1.56-2.36-1.17-4.12-2.87-4.36-5.69Z"/><path class="cls-2" d="M38.11,147.6a8.5,8.5,0,0,1,3.34,7.26c-.09,2.34-1.65,3.23-3.69,2.12A7.23,7.23,0,0,1,34,152.43a2.24,2.24,0,0,1,.06-.72Z"/><path class="cls-2" d="M213.88,142.85c.11,1.9-1,3.19-2.25,4.38a5.22,5.22,0,0,1-2.24,1.27c-1,.27-1.85-.4-2.28-1.56-.85-2.31.18-6.55,2-8.22a1.23,1.23,0,0,1,.44-.17Z"/><path class="cls-2" d="M111.51,40.83c.1,1.73-1.07,2.81-2.05,4a4.87,4.87,0,0,1-1.39,1.07,2.08,2.08,0,0,1-3.24-1.18c-.91-2.27.11-6.6,1.94-8.23.06-.05.19,0,.28-.05Z"/><path class="cls-2" d="M148.93,36.46a8.35,8.35,0,0,1,2.09,8,2.07,2.07,0,0,1-3.28,1.39,7.65,7.65,0,0,1-3.36-4.08,2.26,2.26,0,0,1,.06-.92Z"/><path class="cls-2" d="M130.84,198.74c-1-1.17-.84-2.57-.7-3.91a9,9,0,0,1,2.17-4.87,2.83,2.83,0,0,1,3.58-.93,3.19,3.19,0,0,1,1.25,3.41Z"/><path class="cls-2" d="M182.44,218.78l5.28-5.3c1.47.45,3.24,2.75,3.08,4a3.69,3.69,0,0,1-4.34,3A35.89,35.89,0,0,1,182.44,218.78Z"/><path class="cls-2" d="M118.66,191.47A2.53,2.53,0,0,1,120,189a2.46,2.46,0,0,1,2.67.31c2.17,1.47,3.69,6.06,2.79,8.49,0,.1-.23.16-.35.24Z"/><path class="cls-2" d="M118.66,191.47l6.49,6.54c.12,1-.6,1.68-1.7,1.71a3.93,3.93,0,0,1-2.9-1.64,7.22,7.22,0,0,1-2.07-6.29A1,1,0,0,1,118.66,191.47Z"/><path class="cls-2" d="M200.84,55.69h-.17l-1.16-1.2a4.64,4.64,0,0,1,1.23-3.93,5.59,5.59,0,0,1,6-.94l-5.5,5.54C201.12,55.33,201,55.52,200.84,55.69Z"/><path class="cls-3" d="M77.22,236.69a52,52,0,0,1,4.88-2.89A4.84,4.84,0,0,0,85.31,229a6.54,6.54,0,0,1,.44-2l-.42,4.76,9.7-5.69.11.18c-1.6,1-3.2,2-4.81,3-1.44.89-2.93,1.73-4.34,2.67a2.16,2.16,0,0,0-.84,1.29c-.44,2.44-.77,4.9-1.33,7.33l.84-7.81c-1.92,1.15-3.62,2.35-5.46,3.21-1.68.78-2.06,1.76-1.55,3.48a18.84,18.84,0,0,1,.54,4.46c-.44-2.09-.87-4.18-1.35-6.45l-5.27,3-.12-.21c1.49-.92,3-1.86,4.48-2.74a1.24,1.24,0,0,0,.7-1.55c-.63-3.24-1.14-6.5-1.49-9.78Z"/><path class="cls-3" d="M95.16,123.94q-3,1.86-6,3.71a26.3,26.3,0,0,1-2.71,1.59A2.54,2.54,0,0,0,85,131.52a58.91,58.91,0,0,1-1.16,6.67c.28-2.52.55-5.05.85-7.78-.82.49-1.47.9-2.14,1.29-1.54.91-3.08,1.84-4.64,2.73a.93.93,0,0,0-.5,1.19,48.68,48.68,0,0,1,.79,5.92l-1.34-6.43-5.25,3-.12-.2c1.27-.79,2.54-1.61,3.83-2.37,1.53-.91,1.51-.89,1.2-2.65-.55-3-1-6-1.36-9,.68,3.44,1.37,6.89,2.08,10.46L80,132.69c1.4-.84,2.82-1.66,4.19-2.55a1.49,1.49,0,0,0,.61-.88c.31-1.53.56-3.07.93-4.6l-.44,4.82,9.73-5.72Z"/><path class="cls-3" d="M188.33,226.72c-.14,1.51-.28,3-.45,4.78l9.84-5.76.11.18c-2,1.24-4,2.5-6,3.74a28,28,0,0,1-2.73,1.62,2.59,2.59,0,0,0-1.54,2.31,59.88,59.88,0,0,1-1.16,6.75c.27-2.56.55-5.12.85-7.89l-3.61,2.19c-1.06.62-2.11,1.25-3.18,1.84a1,1,0,0,0-.57,1.26,46.33,46.33,0,0,1,.8,6c-.44-2.13-.89-4.26-1.36-6.52L174,240.28l-.12-.21c1.5-.93,3-1.88,4.52-2.77a1.25,1.25,0,0,0,.71-1.57c-.64-3.27-1.15-6.57-1.51-9.9.69,3.48,1.38,7,2.11,10.61l3.14-1.86c1.25-.75,2.47-1.54,3.75-2.24a1.56,1.56,0,0,0,.89-1.29c.21-1.47.49-2.94.74-4.4Z"/><path class="cls-3" d="M203.24,176c.62,3.13,1.23,6.26,1.87,9.53a35.76,35.76,0,0,1,4.71-2.8c2.5-1,3.38-2.88,3.49-5.36a5.6,5.6,0,0,1,.35-1.64c-.07.78-.13,1.55-.2,2.32s-.15,1.55-.25,2.57l9.67-5.68.11.16c-1.34.85-2.68,1.7-4,2.53-1.7,1-3.43,2-5.1,3.12a2,2,0,0,0-.81,1.2c-.37,2.09-.65,4.2-1,6.31a1.42,1.42,0,0,1-.33.77c.26-2.43.53-4.86.81-7.47-1.94,1.15-3.66,2.35-5.53,3.24-1.64.77-2,1.76-1.5,3.42a19.54,19.54,0,0,1,.56,4.47c-.44-2.09-.88-4.18-1.36-6.43l-5.63,3.24-.12-.21c1.64-1,3.27-2,4.92-3a1.14,1.14,0,0,0,.64-1.41c-.54-2.7-1-5.41-1.41-8.12a6.48,6.48,0,0,1-.07-.77Z"/><path class="cls-3" d="M43,124.29a4.56,4.56,0,0,1-.7.69c-2.35,1.47-4.69,3-7.1,4.35a2.52,2.52,0,0,0-1.4,2.13,62,62,0,0,1-1.17,6.76l.84-7.8c-1.88,1.12-3.53,2.26-5.31,3.11s-2.28,1.83-1.7,3.69a16.92,16.92,0,0,1,.54,4.34l-1.35-6.45-5.25,3-.12-.21c1.4-.86,2.78-1.76,4.21-2.58.74-.43,1.14-.81.94-1.82-.6-3-1.05-6.06-1.55-9.09a.94.94,0,0,1,.06-.59c.69,3.44,1.37,6.89,2.09,10.49l3-1.76c1.32-.79,2.66-1.55,3.94-2.39a1.85,1.85,0,0,0,.7-1c.26-1.1.42-2.23.79-3.34l-.28,3.61,8.86-5.12Z"/><path class="cls-3" d="M247.66,124.28a4.25,4.25,0,0,1-.67.67c-2.3,1.44-4.59,2.9-6.94,4.24a2.51,2.51,0,0,0-1.37,2.09,59.3,59.3,0,0,1-1.13,6.59c.26-2.47.53-5,.82-7.61-1.84,1.09-3.44,2.21-5.18,3s-2.23,1.78-1.66,3.6a16.08,16.08,0,0,1,.52,4.23l-1.32-6.29-5.12,3-.11-.2c1.36-.85,2.71-1.72,4.1-2.52.72-.42,1.12-.79.92-1.78-.59-2.94-1-5.9-1.51-8.86a.91.91,0,0,1,.06-.58l2,10.24,2.9-1.72c1.29-.77,2.6-1.52,3.85-2.34a1.75,1.75,0,0,0,.68-1c.26-1.08.42-2.18.77-3.26-.09,1.13-.17,2.25-.27,3.53l8.64-5Z"/><path class="cls-3" d="M145.34,22a4.5,4.5,0,0,1-.69.69c-2.36,1.47-4.7,3-7.11,4.35a2.57,2.57,0,0,0-1.4,2.14A62.83,62.83,0,0,1,135,35.91c.27-2.54.55-5.08.84-7.81-1.85,1.1-3.47,2.23-5.23,3.06S128.18,33,128.82,35a15.38,15.38,0,0,1,.52,4.25L128,32.79l-5.24,3-.13-.21c1.43-.88,2.83-1.8,4.29-2.62a1.4,1.4,0,0,0,.86-1.76c-.59-3-1-6.06-1.54-9.09a.91.91,0,0,1,.06-.6L128.38,32l3-1.76c1.32-.78,2.66-1.55,4-2.38a1.91,1.91,0,0,0,.69-1c.27-1.11.43-2.24.8-3.35l-.28,3.61L145.37,22Z"/><path class="cls-3" d="M145.34,226.61a4.5,4.5,0,0,1-.69.69c-2.36,1.47-4.7,3-7.11,4.35a2.55,2.55,0,0,0-1.4,2.13,60.26,60.26,0,0,1-1.17,6.77l.85-7.81c-1.86,1.1-3.47,2.22-5.23,3s-2.41,1.9-1.77,3.85a24.41,24.41,0,0,1,.64,4,2.47,2.47,0,0,1-.08.46L128,237.43c-1.79,1-3.52,2-5.24,3l-.13-.21c1.43-.88,2.83-1.81,4.29-2.63a1.41,1.41,0,0,0,.86-1.77c-.59-3-1-6.05-1.54-9.09a.88.88,0,0,1,.06-.59c.69,3.44,1.37,6.89,2.09,10.49l3-1.76c1.32-.79,2.66-1.55,4-2.39a1.85,1.85,0,0,0,.69-1c.27-1.11.43-2.24.8-3.35l-.28,3.61,8.86-5.12Z"/><path class="cls-3" d="M68.63,175.47c-.94.66-1.84,1.37-2.81,2-1.74,1.1-3.5,2.18-5.3,3.18a2.41,2.41,0,0,0-1.12,2.11c-.32,2.27-.65,4.53-1.17,6.77l.85-7.91c-1,.57-1.83,1.05-2.66,1.55-1.35.8-2.68,1.64-4.05,2.4-.6.34-.67.7-.54,1.35a45.31,45.31,0,0,1,.78,5.81c-.44-2.08-.88-4.17-1.35-6.43l-5.24,3-.12-.18c1.09-.7,2.15-1.42,3.26-2.08,2-1.18,2-1.16,1.64-3.4L49.69,177a1.88,1.88,0,0,1,.06-1c.62,3.13,1.24,6.26,1.89,9.52,1.06-.61,2-1.17,3-1.76,1.35-.8,2.7-1.6,4-2.46a1.54,1.54,0,0,0,.6-.89c.31-1.56.56-3.13.94-4.68l-.46,4.94c2-1.2,3.84-2.28,5.67-3.34,1.07-.62,2.16-1.21,3.24-1.82Z"/><path class="cls-3" d="M43,22a3.65,3.65,0,0,1-.61.63c-2.38,1.49-4.75,3-7.19,4.41a2.58,2.58,0,0,0-1.4,2.14,60.23,60.23,0,0,1-1.16,6.77l.83-7.68a1.68,1.68,0,0,0-.49.15c-2.11,1.25-4.2,2.53-6.32,3.76-.5.29-.55.59-.45,1.12A50.9,50.9,0,0,1,27,39.2l-1.35-6.41-5.25,3-.12-.21c1.49-.91,3-1.85,4.48-2.74a1.17,1.17,0,0,0,.69-1.47c-.6-3.15-1.08-6.32-1.6-9.48a.49.49,0,0,1,.1-.4c.69,3.44,1.37,6.89,2.09,10.5,1.05-.62,2.05-1.2,3-1.8,1.3-.77,2.61-1.51,3.87-2.33a1.89,1.89,0,0,0,.7-1c.27-1.1.43-2.23.8-3.35l-.28,3.61L43.05,22Z"/><path class="cls-3" d="M68.63,73.15c-.94.67-1.84,1.38-2.81,2-1.74,1.1-3.52,2.15-5.29,3.19a1.93,1.93,0,0,0-1.05,1.52c-.31,2.46-.7,4.91-1.25,7.35l.85-7.91L57,80.49c-1.57.93-3.13,1.89-4.73,2.79a1,1,0,0,0-.49,1.2,48.82,48.82,0,0,1,.81,5.91L51.25,84,46,87l-.12-.21c1.46-.9,2.91-1.83,4.4-2.69a1.29,1.29,0,0,0,.79-1.61c-.53-2.59-.92-5.21-1.35-7.82a1.81,1.81,0,0,1,0-1l1.89,9.51c1.08-.63,2.09-1.2,3.09-1.8,1.29-.77,2.59-1.52,3.84-2.36a1.76,1.76,0,0,0,.7-1c.32-1.52.56-3.06.93-4.59l-.46,4.94c2-1.2,3.84-2.28,5.67-3.34,1.07-.62,2.16-1.21,3.24-1.81Z"/><path class="cls-3" d="M170.94,175.47c-.93.67-1.84,1.37-2.8,2-1.75,1.1-3.52,2.15-5.3,3.19a1.91,1.91,0,0,0-1,1.52c-.32,2.47-.71,4.92-1.25,7.36.27-2.58.55-5.16.85-7.92l-2.06,1.21c-1.58.93-3.14,1.88-4.73,2.79a.93.93,0,0,0-.49,1.2,50.89,50.89,0,0,1,.81,5.91l-1.36-6.43-5.24,3-.11-.18c1.09-.7,2.15-1.42,3.26-2.08,2-1.18,2-1.16,1.63-3.4s-.74-4.45-1.1-6.68a1.78,1.78,0,0,1,.06-1L154,185.5c1.08-.63,2.09-1.2,3.09-1.8,1.29-.77,2.59-1.53,3.84-2.36a1.8,1.8,0,0,0,.69-1.05c.33-1.52.57-3.06.94-4.59-.15,1.58-.29,3.16-.46,5,2-1.2,3.84-2.28,5.66-3.34,1.07-.63,2.16-1.21,3.24-1.82Z"/><path class="cls-3" d="M187,130.42c-1.92,1.14-3.61,2.33-5.46,3.2-1.66.78-2.08,1.74-1.56,3.47a17.94,17.94,0,0,1,.54,4.47l-1.34-6.45-5.26,3-.13-.21c1.46-.9,2.89-1.83,4.38-2.68a1.34,1.34,0,0,0,.78-1.69c-.62-3.21-1.12-6.43-1.48-9.69.69,3.45,1.38,6.9,2.09,10.49l4.67-2.81a.75.75,0,0,1,.17-.1,4.58,4.58,0,0,0,3.24-4.74,6.6,6.6,0,0,1,.44-2c-.06.74-.11,1.48-.17,2.21s-.16,1.54-.26,2.56l8-4.69.12.21c-1.29.82-2.58,1.65-3.89,2.45a33.25,33.25,0,0,1-3,1.8,2.58,2.58,0,0,0-1.52,2.28,60.77,60.77,0,0,1-1.15,6.67C186.41,135.67,186.69,133.14,187,130.42Z"/><path class="cls-3" d="M170.94,73.15c-.88.63-1.72,1.31-2.63,1.89-1.69,1.06-3.38,2.13-5.14,3.07a2.68,2.68,0,0,0-1.47,2.32c-.19,1.74-.49,3.48-.74,5.22l-.24,0,.68-6.33-2.72,1.57c-1.32.79-2.62,1.6-4,2.36a1,1,0,0,0-.59,1.33,42.18,42.18,0,0,1,.79,5.82c-.44-2.09-.88-4.19-1.35-6.41l-5.27,3-.13-.21c1.47-.9,2.92-1.83,4.41-2.69a1.28,1.28,0,0,0,.78-1.61c-.53-2.6-.91-5.22-1.35-7.83a1.78,1.78,0,0,1,.06-1c.62,3.13,1.24,6.26,1.89,9.51,1.08-.63,2.09-1.2,3.09-1.8,1.29-.77,2.59-1.53,3.85-2.36a1.84,1.84,0,0,0,.68-1c.33-1.53.57-3.07.94-4.59-.15,1.57-.29,3.15-.45,4.89L171,73.17Z"/><path class="cls-3" d="M219.88,74.86c-2.13,1.28-4.27,2.54-6.38,3.84a1.25,1.25,0,0,0-.44.79c-.41,2.58-.79,5.17-1.36,7.73.28-2.59.56-5.17.86-8-.75.46-1.34.83-1.94,1.18-1.61.95-3.2,1.91-4.82,2.83a.93.93,0,0,0-.52,1.18,47.2,47.2,0,0,1,.8,5.93c-.44-2.1-.88-4.19-1.35-6.41l-5.61,3.24L199,87c1.56-1,3.11-2,4.7-2.88a1.34,1.34,0,0,0,.82-1.69c-.59-2.87-1-5.78-1.53-8.68l.25,0c.61,3.13,1.23,6.26,1.87,9.51l3.15-1.87c1.24-.74,2.49-1.45,3.68-2.25a2.1,2.1,0,0,0,.82-1.18c.33-1.5.55-3,.91-4.52-.14,1.58-.29,3.15-.45,4.94,2-1.2,3.87-2.31,5.73-3.37a2.54,2.54,0,0,1,.93-.1Z"/><path class="cls-3" d="M100.92,73.69c.62,3.13,1.23,6.26,1.88,9.53,1.61-1,3.14-1.89,4.66-2.83,1-.62,2.26-1.08,2.84-2s.48-2.26.68-3.42a.81.81,0,0,1,.26-.51c-.11,1.21-.21,2.42-.32,3.82l9.67-5.68.1.17c-1.24.78-2.48,1.58-3.74,2.35-1.75,1.08-3.52,2.14-5.29,3.19a1.82,1.82,0,0,0-1,1.43c-.32,2.5-.72,5-1.27,7.44.28-2.58.55-5.16.85-7.95l-2.53,1.51c-1.41.83-2.8,1.69-4.22,2.49a.92.92,0,0,0-.52,1.17,51.2,51.2,0,0,1,.8,5.93c-.45-2.09-.89-4.18-1.35-6.36L100,85.22l-.09-.13c.59-.4,1.16-.83,1.77-1.2a1.11,1.11,0,0,0,.53-1.39c-.57-2.91-1.07-5.83-1.6-8.75Z"/><path class="cls-3" d="M179.69,34.83l-.56-2-5.21,3-.13-.2,3.39-2.13.43-.24c1.56-.89,1.53-.89,1.21-2.64-.55-3-1-6-1.36-9,.68,3.44,1.37,6.88,2.08,10.45l3-1.77c1.32-.79,2.65-1.55,3.94-2.4a1.85,1.85,0,0,0,.7-1c.31-1.48.54-3,.91-4.47l-.44,4.79,9.69-5.68.11.16c-1.26.8-2.51,1.61-3.78,2.39-1.78,1.09-3.6,2.13-5.35,3.27a2.13,2.13,0,0,0-.85,1.28c-.43,2.45-.77,4.91-1.32,7.34.27-2.54.55-5.08.84-7.81-1.91,1.14-3.59,2.27-5.39,3.17C180,32,179.2,32.93,180,34.69c0,0-.07.09-.11.14Z"/><path class="cls-3" d="M75,64.12,80.53,68c.47-1.25.92-2.36,1.26-3.51.07-.24-.24-.68-.49-.91-2.28-2-4.59-4.07-6.9-6.1l.24-.27,9.19,8-.18.23-1.51-1.16c-.4,1.25-.81,2.41-1.11,3.59-.06.22.22.64.45.81Q87.12,72.9,92.79,77a.52.52,0,0,1,.25.48L80.77,68.81,77.14,79.39l-.26-.09c.52-1.67,1-3.34,1.56-5s1.13-3.41,1.75-5.09A.89.89,0,0,0,79.77,68c-1.68-1.19-3.32-2.44-5-3.67Z"/><path class="cls-3" d="M196.62,178.48l-12-8.51-3.54,10.32-.26-.08c.51-1.63,1-3.26,1.52-4.88s1.11-3.33,1.71-5a.86.86,0,0,0-.4-1.18c-1.64-1.17-3.24-2.38-4.85-3.58l.13-.2,5.46,3.81c.45-1.21.89-2.29,1.22-3.41.07-.23-.23-.67-.47-.89-2.23-2-4.48-4-6.73-5.95l.23-.26,9,7.81-.17.23L186,165.61c-.39,1.22-.79,2.35-1.09,3.5,0,.21.21.62.44.79q5.51,4.07,11,8.11c.13.09.25.19.37.29Z"/><path class="cls-3" d="M49.22,210.86l8.86,7.71-.18.24-1.35-1c-.39,1.25-.8,2.41-1.1,3.6-.05.21.24.62.48.79q5.72,4.23,11.47,8.42c.08.06.13.14.08.37l-12.29-8.73-4,11.7L51,233.9c.65-2.08,1.28-4.16,2-6.23.55-1.71,1.18-3.4,1.69-5.12a1.15,1.15,0,0,0-.37-1c-1.64-1.29-3.33-2.51-5-3.75l.14-.2L55,221.5c.46-1.24.92-2.38,1.28-3.55.06-.21-.24-.62-.47-.83-2.18-2-4.39-3.92-6.58-5.88a.72.72,0,0,1-.12-.21Z"/><path class="cls-3" d="M49.23,6.23l8.84,7.71-.18.24-1.34-1c-.39,1.26-.79,2.41-1.09,3.59-.06.22.22.63.45.81C58.94,19.81,62,22,65,24.24a15,15,0,0,1,2.45,2.13L55.19,17.64l-4,11.71-.23-.07c.66-2.08,1.29-4.17,2-6.24.56-1.71,1.18-3.4,1.7-5.12a1.2,1.2,0,0,0-.36-1c-1.65-1.28-3.35-2.51-5-3.75l.14-.2L55,16.87c.46-1.26.93-2.42,1.29-3.62.06-.2-.29-.6-.53-.81L49,6.49Z"/><path class="cls-2" d="M55.87,55.68l-.18,0-6.11-6.15c.1-.12.18-.32.3-.34,1.9-.31,4.53-.05,5.55,1.8a16.62,16.62,0,0,1,1,3.86Z"/><path class="cls-3" d="M169.77,128.68,157.51,120l-4,11.7-.23-.07c.67-2.12,1.31-4.23,2-6.34.55-1.67,1.16-3.33,1.67-5a1.16,1.16,0,0,0-.37-1c-1.65-1.29-3.34-2.51-5-3.75l.14-.2,5.6,3.9c.46-1.23.91-2.31,1.24-3.43a1.23,1.23,0,0,0-.42-.94c-2.18-2-4.39-3.92-6.58-5.87-.06-.06-.09-.15,0-.39l8.87,7.71-.19.24-1.34-1c-.39,1.26-.79,2.41-1.1,3.6-.05.21.23.62.46.8,3,2.23,6.08,4.44,9.11,6.66.87.64,1.72,1.3,2.57,1.95Z"/><path class="cls-3" d="M93,179.84l-12.27-8.72c-1.22,3.58-2.42,7.07-3.62,10.57l-.27-.09c.56-1.78,1.1-3.57,1.68-5.35.53-1.61,1.09-3.21,1.66-4.81.2-.55,0-.81-.44-1.12-1.67-1.2-3.31-2.45-5-3.67l.14-.2,5.58,3.89c.46-1.23.91-2.34,1.25-3.48.07-.24-.22-.7-.47-.92-2.28-2.05-4.59-4.07-6.9-6.1l.24-.27,9.08,7.91-.18.25-1.41-1.07c-.4,1.24-.81,2.38-1.1,3.56-.06.24.25.68.51.87,3.23,2.39,6.48,4.76,9.73,7.14.63.46,1.25.94,1.87,1.42Z"/><path class="cls-3" d="M126,159.71l9,7.87-.16.22-1.52-1.13c-.4,1.24-.82,2.4-1.11,3.59-.06.22.29.65.56.85,3.15,2.34,6.32,4.65,9.49,7,.25.19.49.4.73.59l-.15.21c-3.59-2.57-7.19-5.13-10.89-7.76l-4,11.68-.23-.07c.67-2.14,1.33-4.29,2-6.43.53-1.65,1.08-3.29,1.68-4.92.2-.54,0-.75-.42-1a66.08,66.08,0,0,1-5.45-4.31l6.17,4.31c.47-1.27.92-2.44,1.3-3.63,0-.17-.2-.51-.39-.69L126,160.16c-.08-.07-.14-.17-.22-.25Z"/><path class="cls-3" d="M227.86,63.73,234,68c.46-1.27.92-2.43,1.29-3.62.06-.18-.19-.52-.38-.69q-3.28-3-6.59-5.87a1.78,1.78,0,0,1-.22-.26l.18-.19,9,7.86-.17.22-1.51-1.13c-.4,1.24-.82,2.4-1.12,3.58-.05.24.29.67.55.86,3.16,2.34,6.33,4.65,9.5,7,.26.19.5.4.74.59l-.15.21L234.25,68.8l-4,11.68L230,80.4c.65-2.07,1.29-4.15,2-6.23.55-1.71,1.12-3.41,1.73-5.1.2-.55,0-.76-.41-1-1.87-1.37-3.72-2.76-5.58-4.14Z"/><path class="cls-3" d="M106.11,16.86c.46-1.24.92-2.35,1.26-3.5.07-.24-.25-.69-.5-.91-2.28-2.06-4.6-4.08-6.9-6.11l.23-.27,9.57,8.36-.15.2-1.91-1.43c-.39,1.24-.8,2.4-1.09,3.58-.06.24.29.67.55.86,3.19,2.36,6.39,4.69,9.58,7,.24.17.45.37.68.56l-.14.2-10.93-7.79c-1.36,3.94-2.69,7.81-4,11.68l-.19-.05c.2-.74.38-1.5.62-2.23,1-3,1.93-6,3-8.93.24-.69.06-1-.47-1.34-1.66-1.17-3.27-2.4-4.89-3.61l.14-.21Z"/><path class="cls-3" d="M202.53,210.71l9.59,8.39-.17.2L210,217.82c-.4,1.27-.81,2.46-1.11,3.67,0,.2.3.59.55.77,3.16,2.34,6.33,4.65,9.49,7,.27.2.53.42.79.63l-.15.2-10.93-7.79c-1.36,4-2.7,7.85-4,11.73l-.22-.07c.63-2.05,1.25-4.1,1.91-6.14.55-1.71,1.1-3.43,1.73-5.11a.85.85,0,0,0-.38-1.2c-1.68-1.19-3.32-2.44-5-3.66l.14-.21,5.58,3.89c.46-1.24.92-2.35,1.26-3.5.07-.24-.25-.69-.5-.92-2.28-2.05-4.59-4.07-6.9-6.1Z"/><path class="cls-3" d="M100.22,108.39l9.58,8.39-.16.2-1.93-1.48c-.4,1.28-.81,2.46-1.11,3.67,0,.2.3.59.55.77,3.16,2.34,6.33,4.65,9.5,7,.27.19.52.41.79.62l-.16.21c-3.63-2.59-7.25-5.18-10.93-7.79-1.36,4-2.69,7.85-4,11.72l-.22-.07c.64-2.05,1.26-4.1,1.91-6.14.55-1.71,1.11-3.43,1.74-5.11a.85.85,0,0,0-.39-1.2c-1.67-1.19-3.32-2.44-5-3.66l.14-.21,5.58,3.89c.46-1.24.92-2.35,1.26-3.5.07-.24-.24-.69-.49-.92-2.29-2.05-4.6-4.07-6.91-6.1Z"/><path class="cls-3" d="M202.86,13l5.57,3.9c.46-1.25.92-2.36,1.26-3.51.07-.24-.25-.69-.5-.92-2.29-2-4.6-4.07-6.9-6.1l.23-.27,9.6,8.39-.17.2L210,13.18c-.4,1.28-.81,2.47-1.11,3.68,0,.2.3.59.56.77,3.15,2.34,6.33,4.65,9.49,7,.26.19.51.4.77.6l-.15.22-10.92-7.78c-1.36,4-2.69,7.85-4,11.72l-.22-.07c.64-2.05,1.26-4.1,1.91-6.15.55-1.71,1.11-3.42,1.74-5.1a.85.85,0,0,0-.39-1.2c-1.68-1.19-3.32-2.44-5-3.66Z"/><path class="cls-3" d="M40.48,178.86l-10.86-7.74c-1.37,4-2.7,7.83-4,11.7l-.26-.09c1.19-3.66,2.36-7.32,3.61-11a1.14,1.14,0,0,0-.5-1.59c-1.64-1.13-3.22-2.36-4.82-3.55l.14-.2,5.61,3.92c.47-1.27.91-2.43,1.3-3.62.06-.17-.13-.49-.3-.64-2.24-2-4.49-4-6.74-6l.17-.2,8.89,7.67-.19.24L31,166.66c-.41,1.26-.83,2.43-1.13,3.64-.06.22.33.64.61.84,3.15,2.34,6.33,4.65,9.49,7,.23.17.45.36.68.54Z"/><path class="cls-3" d="M131.93,68.8l-4,11.71-.23-.08c.68-2.16,1.34-4.32,2-6.47.53-1.65,1.14-3.27,1.64-4.93a1.09,1.09,0,0,0-.35-.93c-1.68-1.3-3.4-2.55-5.1-3.82a.86.86,0,0,1-.39-.56L131.7,68c.45-1.25.91-2.39,1.26-3.56.06-.21-.24-.61-.47-.82-1.79-1.62-3.61-3.21-5.42-4.82-.06,0-.08-.16-.12-.24l.19-.22L135,65.29l-.16.2-1.54-1.15c-.38,1.21-.7,2.33-1.11,3.43-.24.65.24.8.58,1,3.16,2.33,6.34,4.64,9.5,7,.25.18.47.39.71.58l-.15.2Z"/><path class="cls-3" d="M26.34,237.93c-.88-.62-1.55,0-2.25.39a32.74,32.74,0,0,1-4.14,2.2c1.46-.92,2.88-1.9,4.39-2.73a1.72,1.72,0,0,0,1.09-2.21c-.47-2-.75-4.05-1.1-6.08a2.42,2.42,0,0,1,.06-1.19l1.67,8.36,1.63-1c1.79-1.07,3.59-2.13,5.37-3.24a1.48,1.48,0,0,0,.6-.88c.26-1.14.43-2.3.81-3.45l-.28,3.61,8.86-5.12,0,0a3.1,3.1,0,0,1-.61.64c-2.38,1.48-4.74,3-7.18,4.39a2.66,2.66,0,0,0-1.41,2.24,61,61,0,0,1-1.16,6.66l.84-7.81-5.25,3.14-1.68,1c-.43.27-.75.58-.23,1.06Z"/><path class="cls-3" d="M151.69,217.6l5.58,3.91c.47-1.27.92-2.41,1.28-3.58.06-.21-.25-.62-.48-.83-2.25-2-4.51-4-6.77-6l.24-.27,8.85,7.7-.17.22-1.36-.95c-.38,1.23-.78,2.36-1.07,3.53a1,1,0,0,0,.41.81c2.5,1.85,5,3.66,7.54,5.5.29.21.55.48.82.72l-.16.18-8.89-6.3-4,11.69-.24-.08c.9-2.82,1.81-5.65,2.72-8.47.3-.93.6-1.87,1-2.78a.83.83,0,0,0-.37-1.14c-1.69-1.2-3.35-2.46-5-3.69Z"/><path class="cls-3" d="M37.2,74.14,31,69.74l-1.34-.95c-1.37,4-2.7,7.85-4,11.73l-.22-.07c.63-2,1.25-4.1,1.91-6.14.56-1.74,1.14-3.48,1.77-5.2a.77.77,0,0,0-.36-1,67.9,67.9,0,0,1-5.48-4.32L29.38,68c.45-1.23.91-2.34,1.25-3.48.07-.24-.24-.68-.48-.9-2.23-2-4.49-4-6.74-6l.24-.27,9,7.89-.17.21L31,64.34c-.41,1.27-.82,2.45-1.15,3.66-.05.18.25.55.48.71,2,1.52,4.13,3,6.19,4.51a8.82,8.82,0,0,1,.85.77Z"/><path class="cls-2" d="M130.84,198.74l6.3-6.3a11.07,11.07,0,0,1-.28,3.13,6.85,6.85,0,0,1-3.58,4A1.7,1.7,0,0,1,130.84,198.74Z"/><path class="cls-3" d="M86.49,27.09a1.5,1.5,0,0,0-1.36,1.38c-.35,2.49-.75,5-1.31,7.43l.84-7.8c-1.9,1.13-3.57,2.28-5.38,3.16-1.62.79-2.22,1.71-1.64,3.53a16.93,16.93,0,0,1,.55,4.46L76.84,32.8l-5.28,3-.12-.21c1.53-.93,3-1.89,4.58-2.8a1.12,1.12,0,0,0,.62-1.4c-.62-3.28-1.15-6.57-1.51-9.88.69,3.45,1.37,6.9,2.09,10.5l2.88-1.71c1.37-.82,2.76-1.62,4.11-2.49a1.55,1.55,0,0,0,.62-.88c.26-1.14.43-2.3.8-3.44l-.32,3.33,1.18.24Z"/><path class="cls-3" d="M161.4,20.08c-.85-.5-1.71-1-2.55-1.5-.44-.27-.84-.6-1.33-.95-1.37,4-2.7,7.84-4,11.71l-.2-.07c.48-1.57.94-3.15,1.45-4.72.71-2.18,1.42-4.35,2.18-6.5a.87.87,0,0,0-.4-1.21c-1.67-1.19-3.31-2.44-5-3.67l.13-.2,5.59,3.9c.47-1.26.92-2.37,1.26-3.51.07-.24-.25-.69-.5-.91-2.23-2-4.48-4-6.73-5.95l.23-.27,8.85,7.7-.18.24-1.32-1c-.41,1.27-.81,2.46-1.14,3.66-.05.18.2.51.4.66.83.63,1.71,1.2,2.55,1.83a4.52,4.52,0,0,1,.67.77Z"/><path class="cls-3" d="M61.7,124.06a4.18,4.18,0,0,1-1.26-.35c-1.45-1-2.85-2.07-4.27-3.1-.29-.21-.6-.39-1-.66-.58,1.76-1.12,3.44-1.7,5.12a5.38,5.38,0,0,1-.58,1l0,0a2.86,2.86,0,0,1,0-.83c.53-1.65,1.06-3.29,1.66-4.92a.86.86,0,0,0-.39-1.2c-1.68-1.19-3.32-2.44-5-3.67l.13-.2,2.71,1.88,2.88,2c.46-1.25.92-2.36,1.26-3.5.07-.24-.24-.69-.49-.92-2.23-2-4.49-4-6.75-6l.24-.27,8.86,7.71-.17.23-1.36-1c-.38,1.22-.77,2.36-1.07,3.52a1.06,1.06,0,0,0,.41.82c1.92,1.42,3.86,2.81,5.8,4.2Z"/><path class="cls-2" d="M148.93,36.46l-4.49,4.44c-.11-.06-.29-.1-.31-.18a5.92,5.92,0,0,1,.73-4.6C145.81,34.78,147.68,35,148.93,36.46Z"/><path class="cls-3" d="M107.17,222.5l-.87-.08q-2,5.78-4,11.56l-.24-.07c.69-2.19,1.37-4.38,2.08-6.56q.78-2.43,1.65-4.83c.19-.53,0-.74-.44-1-1.68-1.21-3.33-2.46-5-3.69l.15-.21,5.58,3.9c.46-1.23.92-2.34,1.25-3.48.08-.25-.22-.7-.47-.93C104.6,215,102.29,213,100,211l.24-.27,9.75,8.52-.15.2-2.11-1.62c-.39,1.25-.82,2.41-1.09,3.6-.07.31.33.73.52,1.11Z"/><path class="cls-3" d="M238.09,28.19c-.35.18-.72.34-1.06.55-1.87,1.12-3.73,2.27-5.62,3.36a1,1,0,0,0-.53,1.25,46.7,46.7,0,0,1,.78,5.9l-1.35-6.46-5.25,3-.12-.2c1.34-.83,2.65-1.74,4-2.47a1.73,1.73,0,0,0,1.08-2.22c-.48-2.2-.79-4.44-1.16-6.66a.76.76,0,0,1,.12-.6c.54,2.72,1.09,5.45,1.65,8.28a7,7,0,0,0,.71-.29c2.13-1.26,4.27-2.51,6.38-3.8a1.56,1.56,0,0,0,.61-.88c.28-1.47.48-2.95.85-4.4-.15,1.37-.28,2.74-.44,4.11a9.57,9.57,0,0,1-.26,1.38c0,.07-.28.07-.43.11Z"/><path class="cls-3" d="M235.4,167.21a21.39,21.39,0,0,1-.76,2.51,1,1,0,0,0,.43,1.44c3.18,2.29,6.33,4.61,9.49,6.93.25.18.48.39.72.58l-.15.2-10.88-7.77-4,11.72-.22-.08c.63-2,1.25-4.1,1.91-6.14.56-1.73,1.13-3.46,1.76-5.17a.76.76,0,0,0-.35-1.05c-1.37-1-2.72-2-4.08-3l.16-.23,4.5,3.14,1.49-3.07Z"/><path class="cls-3" d="M185.81,70.61l-2.75-1.81c-.64,2-1.24,3.82-1.89,5.67a6.89,6.89,0,0,1-.76,1.27l0,0c.64-2.06,1.22-4.13,1.94-6.15.3-.85.24-1.3-.56-1.83-1.62-1.08-3.13-2.31-4.69-3.47l.14-.2L182.85,68c.46-1.24.91-2.38,1.27-3.55.07-.2-.17-.59-.38-.77-2.25-2-4.53-4.05-6.8-6.07-.07-.06-.1-.15,0-.4l9.2,8-.17.22-1.55-1.13c-.38,1.21-.78,2.34-1.08,3.5a1.07,1.07,0,0,0,.39.83c.7.62,1.45,1.18,2.18,1.77Z"/><path class="cls-2" d="M111.51,40.83l-4.46-4.42a2.33,2.33,0,0,1,3.77-.42A5,5,0,0,1,111.51,40.83Z"/><path class="cls-3" d="M181.27,153.89l-16.73-25.27.29-.2q8.38,12.63,16.75,25.26Z"/><path class="cls-2" d="M213.88,142.85l-4.31-4.3a2.24,2.24,0,0,1,3.68-.12A5,5,0,0,1,213.88,142.85Z"/><path class="cls-3" d="M109.21,182c-.86.57-1.7,1.17-2.58,1.72s-2.08,1.25-3.13,1.83a.91.91,0,0,0-.53,1.17,49.1,49.1,0,0,1,.79,5.93l-1.35-6.39-5.6,3.24-.12-.2c1.56-1,3.09-2,4.68-2.88a1.4,1.4,0,0,0,.82-1.77c-.53-2.56-.91-5.15-1.35-7.73a1.68,1.68,0,0,1,.07-1c.62,3.13,1.23,6.27,1.88,9.53l6.25-3.69Z"/><path class="cls-3" d="M179.62,52.32Q171.42,40,163.23,27.59l.31-.21q8.19,12.36,16.37,24.71Z"/><path class="cls-2" d="M38.11,147.6,34,151.71c-.74-1-.44-3.37.53-4.32S36.85,146.62,38.11,147.6Z"/><path class="cls-3" d="M189.11,78.53l16,24.13-.31.21-16-24.14Z"/><path class="cls-3" d="M10.05,129.66,26.4,154.34l-.31.21L9.73,129.87Z"/><path class="cls-3" d="M51.34,102.92l-16-24.17.32-.2,16,24.14Z"/><path class="cls-3" d="M86.8,180.85l16,24.15-.32.21-16-24.15Z"/><path class="cls-3" d="M112.35,27.33l16,24.16-.31.21-16-24.13Z"/><path class="cls-3" d="M215.48,129.52l15.61,23.55-.31.2-15.6-23.55Z"/><path class="cls-3" d="M138,78.52l16,24.17-.32.21-16-24.15Z"/><path class="cls-3" d="M35.65,180.87l15.81,23.84-.33.21-15.8-23.86Z"/><path class="cls-3" d="M25.75,51.71,12.26,31.41l.36-.23L26,51.52Z"/><path class="cls-3" d="M208,121.21c0-.08-.15-.19-.13-.22.76-1.15.06-1.7-.83-2.31-1.48-1-2.89-2.13-4.33-3.2l.14-.2,5.6,3.91c.46-1.27.93-2.43,1.29-3.63.06-.2-.31-.59-.55-.81q-3.42-3.06-6.88-6.1l.23-.26,9.61,8.4L212,117,210,115.51c-.39,1.24-.78,2.38-1.08,3.55-.08.28.14.64.22,1l0,0c-.84,0-.75.77-1.06,1.21Z"/><path class="cls-2" d="M140.05,45.34l-3.87,3.84a4.13,4.13,0,0,1,.57-3.93C137.58,44.14,139.57,44.22,140.05,45.34Z"/><path class="cls-3" d="M132.54,132.19c-1.13.74-2.24,1.52-3.41,2.2a1,1,0,0,0-.56,1.33,45.44,45.44,0,0,1,.77,5.82L128,135.11l-5.23,3-.12-.19c1.27-.8,2.52-1.62,3.81-2.38,1.54-.91,1.55-.89,1.2-2.66-.21-1.12-.43-2.25-.62-3.37a2.47,2.47,0,0,1,0-.6h.25l1,5.38,4.1-2.25Z"/><path class="cls-3" d="M132.54,132.19l-.11-.13c1-.61,1.94-1.18,2.85-1.84a2,2,0,0,0,.71-1c.27-1.13.43-2.28.81-3.4l-.31,3.64,8.88-5.11,0,0a3.37,3.37,0,0,1-.62.63c-2.41,1.5-4.79,3-7.26,4.44a2.42,2.42,0,0,0-1.32,2.08c-.13,1.14-.31,2.28-.47,3.43l-.31,0,.44-4.32Z"/><path class="cls-3" d="M201.65,199.62c-.28-.14-.67-.2-.81-.42q-3.92-5.83-7.77-11.7c-1.28-1.94-2.53-3.9-3.79-5.85a1.2,1.2,0,0,1-.23-.75c.7,1,1.4,2,2.1,3.06,1.68,2.41,3.41,4.78,5,7.23,1.74,2.63,3.38,5.33,5.07,8a3.91,3.91,0,0,0,.37.44Z"/><path class="cls-3" d="M231.07,236.34c-.61,1.42.1,2.78.22,4.16s.45,2.77.54,4.18c-.48-2.37-1-4.73-1.48-7.27l-5.28,3.05-.12-.2c1.36-.85,2.7-1.73,4.09-2.52a1.64,1.64,0,0,0,1-2.05,94.26,94.26,0,0,1-1.46-9.5c.6,3.06,1.19,6.11,1.78,9.17a7.82,7.82,0,0,0,.21,1c0,.05.31,0,.47,0Z"/><path class="cls-2" d="M119.62,49l-3.93-3.92c1.74-1.14,3.43-.6,3.94,1.38A10.29,10.29,0,0,1,119.62,49Z"/><path class="cls-3" d="M231.08,236.34c.74-.37,1.5-.71,2.22-1.12,1.38-.8,2.7-1.7,4.12-2.43.86-.44.93-1.19,1.1-1.93.2-.92.31-1.85.54-2.78-.1,1.17-.2,2.34-.33,3.76l2.23-1.18.09.17c-.45.28-.89.57-1.35.82a2.61,2.61,0,0,0-1.3,2.24,60.29,60.29,0,0,1-1.11,6.65c.29-2.56.58-5.12.9-7.88-1.07.65-2,1.22-2.92,1.77-1.09.65-2.19,1.29-3.32,1.89-.23.12-.58,0-.88,0Z"/><path class="cls-3" d="M141.91,187.62c.28.13.68.18.83.4q4.08,6.14,8.11,12.29a43.81,43.81,0,0,1,2.87,4.87c-1.23-1.8-2.48-3.6-3.69-5.42q-4.07-6.06-8.1-12.14Z"/><path class="cls-2" d="M66.71,44.66q-2.42,2.43-4.84,4.84a5.87,5.87,0,0,1-.61.48c.13-1.9,2.24-4.77,4-5.31A5.47,5.47,0,0,1,66.71,44.66Z"/><path class="cls-3" d="M117.86,138.14c1,1.38,2,2.74,2.89,4.15,2.43,3.68,4.83,7.38,7.24,11.08a.73.73,0,0,1,.13.6c-.84-1.2-1.68-2.38-2.5-3.59-2.26-3.32-4.52-6.64-6.75-10-.44-.67-.79-1.4-1.18-2.09Z"/><path class="cls-3" d="M220.35,36.07c.91,1.3,1.85,2.58,2.73,3.91,2.41,3.66,4.79,7.34,7.18,11a.91.91,0,0,1,.18.67c-.8-1.15-1.61-2.3-2.4-3.46q-3.45-5.06-6.88-10.13a15.76,15.76,0,0,1-.95-1.88A.53.53,0,0,0,220.35,36.07Z"/><path class="cls-3" d="M109.21,182l-.17-.2a2.63,2.63,0,0,0,1.6-2.6,20.33,20.33,0,0,1,.72-3.5l-.46,4.92,9.68-5.69.11.17c-1.25.78-2.48,1.58-3.73,2.35-1.61,1-3.2,2-4.86,2.92a2.56,2.56,0,0,0-1.55,2.35,1.52,1.52,0,0,1-.18.42l-.14-.16v-1.3Z"/><path class="cls-3" d="M68.65,175.49c1.45-1.08,1.44-1.07.79-2.86-1.06-2.95-2.1-5.89-3.06-8.87a142.88,142.88,0,0,1,6,16.48l-2.14-5.4-1.62.63Z"/><path class="cls-3" d="M171,73.17c1.46-1.06,1.45-1,.83-2.77-1.07-3-2.12-6-3.09-9a145.48,145.48,0,0,1,6,16.48l-2.14-5.39-1.63.62Z"/><path class="cls-3" d="M70.08,41.23c-.79-1.06-1.63-2.09-2.36-3.19-2.43-3.72-4.81-7.46-7.22-11.19a.7.7,0,0,1-.12-.57c1.13,1.64,2.25,3.29,3.39,4.92,1.5,2.16,3.06,4.27,4.52,6.46.73,1.1,1.28,2.32,1.92,3.48Z"/><path class="cls-2" d="M199.51,54.5l1.16,1.2c-1,1-1.94,2-2.93,3-1.5,1.5-3,3-4.53,4.46a3.22,3.22,0,0,1,.4-1,28.55,28.55,0,0,1,2.72-2.67A7.69,7.69,0,0,0,199.16,55C199.19,54.81,199.39,54.66,199.51,54.5Z"/><path class="cls-3" d="M247.73,226.67c.46-.41,1.19-.76,1.31-1.25s-.38-1.14-.59-1.72q-1.55-4.38-3.1-8.76l.28-.1,5.94,16.09-.27.11c-.67-1.69-1.33-3.37-2-5l-1.59.65Z"/><path class="cls-3" d="M145.37,22c1.47-1,1.46-1,.86-2.66q-1.6-4.52-3.19-9l.27-.09,6,16.12-.28.1c-.66-1.69-1.33-3.37-2-5.05l-1.65.58Z"/><path class="cls-3" d="M247.68,124.31c1.48-1,1.47-1,.87-2.65q-1.61-4.51-3.19-9l.27-.1,6,16.12-.28.11c-.67-1.69-1.33-3.38-2-5l-1.66.58Z"/><path class="cls-3" d="M43.05,22c1.47-1,1.46-1,.86-2.65q-1.6-4.52-3.19-9l.27-.1,6,16.13-.28.1-2-5.05L43,22Z"/><path class="cls-3" d="M172.83,174.24c1.42-1.06,1.41-1.06.78-2.8-.87-2.39-1.72-4.79-2.57-7.19a1,1,0,0,1,0-.56,134,134,0,0,1,5.48,15.18l-2.08-5.27-1.59.62Z"/><path class="cls-3" d="M247.72,22c1.42-1.12,1.41-1.11.77-2.88-1.06-2.94-2.09-5.88-3.13-8.83l.27-.1q3,8.05,6,16.09l-.28.11c-.65-1.67-1.31-3.34-2-5.05L247.7,22Z"/><path class="cls-3" d="M145.37,124.32c1.47-1,1.46-1,.84-2.76-.94-2.64-1.87-5.29-2.8-7.93a.77.77,0,0,1,.06-.7q2.9,7.86,5.8,15.72l-.28.1-2-5-1.65.59Z"/><path class="cls-3" d="M43.05,226.63c1.47-1,1.46-1,.86-2.66q-1.33-3.74-2.65-7.49c-.1-.29-.17-.59-.26-.89l.25-.08L47,231l-.28.1c-.66-1.68-1.33-3.37-2-5l-1.66.58Z"/><path class="cls-3" d="M225.65,180q-3-8.07-5.92-16.14l.32-.12,6,16.13Z"/><path class="cls-3" d="M200.05,128.74l-5.91-16.1.32-.12,6,16.08Z"/><path class="cls-3" d="M117.73,163.68l6,16.11-.37.14q-3-8.06-5.9-16.09Z"/><path class="cls-3" d="M15.41,61.35l6,16.12-.37.14L15.09,61.47Z"/><path class="cls-3" d="M225.64,77.63q-3-8.07-5.92-16.16l.33-.11q3,8.06,6,16.11Z"/><path class="cls-3" d="M194.47,214.84l5.94,16.06-.36.14L194.14,215Z"/><path class="cls-3" d="M194.39,10.26c2.12,5.31,4.2,10.63,5.92,16.09l-.26.09-5.9-16.09Z"/><path class="cls-3" d="M97.73,128.74l-5.91-16.1.33-.12q3,8,5.95,16.07Z"/><path class="cls-3" d="M69.63,142.86c-2.34-3.48-4.69-7-7-10.45a33.26,33.26,0,0,1-2.24-3.8c.31.44.63.88.93,1.32,2.12,3.14,4.25,6.28,6.35,9.43.76,1.14,1.45,2.33,2.16,3.49Z"/><path class="cls-3" d="M145.37,226.63c1.47-1,1.46-1,.86-2.66-.85-2.38-1.7-4.78-2.42-7.21A116.42,116.42,0,0,1,149,231.08c-.66-1.69-1.33-3.38-2-5.05l-1.65.58Z"/><path class="cls-3" d="M21,179.92,15.7,165.51l.37-.13,5.29,14.43Z"/><path class="cls-3" d="M43.05,124.31c1.47-1,1.47-1,.87-2.65q-1.19-3.3-2.35-6.6l.34-.13q2.52,6.87,5,13.73l-.26.1-2-5-1.66.58Z"/><path class="cls-3" d="M92.14,214.85l5.37,14.4-.4.14q-2.64-7.21-5.27-14.43Z"/><path class="cls-3" d="M209.16,120c.88.52,1.8,1,2.62,1.58,2.52,1.82,5,3.68,7.5,5.53a.85.85,0,0,1,.34.59l-2.92-2c-2.23-1.59-4.47-3.18-6.69-4.8a6.42,6.42,0,0,1-.83-.89Z"/><path class="cls-3" d="M107.17,222.5l0,0c.79.47,1.61.88,2.35,1.42,2.51,1.82,5,3.68,7.49,5.52a.8.8,0,0,1,.34.54c-.45-.3-.91-.59-1.34-.9-2.74-1.94-5.48-3.88-8.21-5.85A3.8,3.8,0,0,1,107.17,222.5Z"/><path class="cls-3" d="M69.63,142.86h.18l7.81,11.57-.26.18-4.28-6.3c-1.06-1.58-2.1-3.16-3.14-4.74A4.38,4.38,0,0,1,69.63,142.86Z"/><path class="cls-3" d="M119.19,66.15a2.92,2.92,0,0,1,.61.72c.6,1.56,1.17,3.13,1.73,4.7a62.07,62.07,0,0,1,1.9,6c-.51-1.25-1-2.49-1.52-3.75q-1.3-3.46-2.56-6.95a4.76,4.76,0,0,1-.14-.77Z"/><path class="cls-3" d="M70.08,41.23l.13-.09c.1.06.25.1.31.2q3.42,5.27,6.82,10.53a.35.35,0,0,1,0,.4c-.84-1.25-1.69-2.49-2.54-3.74l-4.32-6.42A8.82,8.82,0,0,1,70.08,41.23Z"/><path class="cls-2" d="M194.21,49.19c-1.51-1.5-3-3-4.52-4.52a4.16,4.16,0,0,1,1.49.29,8.52,8.52,0,0,1,3.15,4S194.25,49.12,194.21,49.19Z"/><path class="cls-3" d="M102.52,102.86,95.66,92.63,96,92.4l6.75,10.3Z"/><path class="cls-3" d="M185.81,70.61l.12-.15c.73.46,1.49.89,2.19,1.4,2.47,1.81,4.93,3.64,7.27,5.64-.94-.65-1.88-1.29-2.81-2q-3.12-2.19-6.23-4.41A4.49,4.49,0,0,1,185.81,70.61Z"/><path class="cls-3" d="M93.27,88.72c-1.06-1.51-2.16-3-3.19-4.55a53.37,53.37,0,0,1-3.34-5.6l4,5.84c.71,1,1.44,2.1,2.12,3.17a5.6,5.6,0,0,1,.42,1.17Z"/><path class="cls-3" d="M208,121.21h.14c-.43,1.39-.83,2.8-1.3,4.19a61.74,61.74,0,0,1-2.41,6.21c.7-2.23,1.38-4.46,2.12-6.68C207,123.67,207.49,122.45,208,121.21Z"/><path class="cls-2" d="M126.71,202.93l-3.77,3.69C122.68,204.94,124.83,202.59,126.71,202.93Z"/><path class="cls-3" d="M68.65,73.18c1.45-1.08,1.44-1.08.8-2.9a4.64,4.64,0,0,1-.15-1h0A12.82,12.82,0,0,1,71,73.12a48.51,48.51,0,0,1,1.43,4.77l-2.13-5.36-1.62.63Z"/><path class="cls-2" d="M144.47,144.23l4.29,4.15a2.61,2.61,0,0,1-.95-.12A7.35,7.35,0,0,1,144.47,144.23Z"/><path class="cls-3" d="M161.4,20.08l0,0c.93.59,1.88,1.13,2.77,1.77,2,1.41,3.87,2.87,5.69,4.47l-3.46-2.41c-1.38-1-2.76-2-4.12-3A6,6,0,0,1,161.4,20.08Z"/><path class="cls-3" d="M220.35,36.07a.53.53,0,0,1-.14.12c-.69-1-1.41-1.93-2.07-2.93a67.75,67.75,0,0,1-3.53-5.85c.71,1,1.45,2.05,2.14,3.1C218,32.35,219.15,34.22,220.35,36.07Z"/><path class="cls-3" d="M117.86,138.14l-.17.18-5.61-8.46.22-.15c1.4,2.06,2.81,4.11,4.19,6.18C117,136.62,117.4,137.39,117.86,138.14Z"/><path class="cls-3" d="M69.3,69.28a18,18,0,0,1-.81-1.65c-.75-2-1.46-4.09-2.19-6.14l.23-.09c1,2.55,1.93,5.1,2.88,7.65,0,0-.09.15-.13.22Z"/><path class="cls-3" d="M94.75,18.27l-2.34-6.38.32-.11q1.18,3.18,2.36,6.36Z"/><path class="cls-3" d="M238.09,28.19a3.83,3.83,0,0,1,.32,1.27,51,51,0,0,1-1.14,6.45c.25-2.1.51-4.19.75-6.28,0-.48,0-1,.07-1.44Z"/><path class="cls-3" d="M141.93,187.62,137.71,181l.18-.12c1.38,2,2.77,4,4.12,6.08.09.14-.06.43-.1.65Z"/><path class="cls-3" d="M228.28,159.75l5.12,4.38-.3.34-5-4.52Z"/><path class="cls-3" d="M61.68,124.07l5.93,4.43-.12.16c-1.89-1.31-3.78-2.62-5.65-4-.13-.1-.1-.43-.14-.65Z"/><path class="cls-3" d="M86.49,27.09c.09-.25.1-.63.28-.73,1.71-1.06,3.44-2.08,5.17-3.1l.16.26c-1,.61-2,1.22-3,1.85s-1.77,1.14-2.65,1.72Z"/><path class="cls-3" d="M247.7,22c-.77.55-1.53,1.14-2.33,1.66-1.11.71-2.26,1.37-3.39,2l-.19-.33L247.72,22Z"/><path class="cls-1" d="M110.23,183l.14.16c-.24,2.13-.49,4.27-.73,6.4l-.31,0Z"/><path class="cls-3" d="M52.88,126.08c-.16.68-.27,1.38-.49,2A20.3,20.3,0,0,1,51,131.57q.82-2.62,1.66-5.27c0-.08.2-.13.3-.19Z"/><path class="cls-3" d="M97,24.1,95.34,20l.45-.16,1.38,4.25Z"/><path class="cls-3" d="M201.62,199.62c.93,1.48,1.86,2.95,2.78,4.43l-.2.14c-.93-1.39-1.87-2.78-2.78-4.18,0-.06.14-.26.22-.39Z"/><path class="cls-3" d="M26.34,237.93c.24,1.63.47,3.26.71,4.89a2.58,2.58,0,0,1,0,1.07c-.32-1.65-.67-3.3-.95-5a2.58,2.58,0,0,1,.27-1Z"/><path class="cls-3" d="M93.25,88.75c.13,0,.32,0,.37.07.63.93,1.24,1.87,1.84,2.82a1,1,0,0,1,.07.35l-.26.14-2-3.41Z"/><path class="cls-3" d="M242.86,83.09,240,78.69l.19-.12,2.94,4.33Z"/><path class="cls-3" d="M119.21,66.13c-.59-1.55-1.19-3.11-1.79-4.66l.23-.09c.55,1.41,1.11,2.82,1.63,4.24.06.14,0,.35-.09.53Z"/><path class="cls-3" d="M37.2,74.14l.16-.15,3.34,2.3-.2.28Z"/><path class="cls-3" d="M169.39,241.05l0,0c-.83-1.11-1.65-2.23-2.47-3.34l.38-.25Z"/><path class="cls-2" d="M55.87,55.68l.6-.78.91,2.35Z"/><path class="cls-3" d="M179.69,34.83h.16c.29,1.45.59,2.91.89,4.37l-.28,0C180.2,37.78,179.94,36.3,179.69,34.83Z"/><path class="cls-3" d="M235.4,167.21c.26-1.27-1.07-1.49-1.41-2.43l2.69,2.41-.08.1a3.26,3.26,0,0,0-.73-.52c-.08,0-.31.28-.47.44Z"/><path class="cls-3" d="M180.41,75.74a7.56,7.56,0,0,1-.18,1.35c-.23.77-.53,1.51-.8,2.27l-.28-.1c.43-1.17.86-2.34,1.28-3.5Z"/><path class="cls-3" d="M244.49,229c.1-.24.13-.6.3-.71,1-.56,2-1.07,2.94-1.6l0,0-2.86,2a2.11,2.11,0,0,0-.36.37Z"/><path d="M108,148.1l2.49-2.49A4.74,4.74,0,0,1,108,148.1Z"/><path class="cls-3" d="M219.88,74.86c.08-.2.1-.51.25-.6A19.73,19.73,0,0,1,223,72.77l-3.1,2.09Z"/><path class="cls-3" d="M244.49,229c-.47.25-.94.51-1.41.75a3.91,3.91,0,0,1-1.06.42c.72-.6,1.31-1.48,2.47-1.17Z"/><path class="cls-3" d="M167.36,228.59l2.61,1.94-.12.16-2.67-1.86Z"/></g></g></svg>