<svg xmlns="http://www.w3.org/2000/svg" viewBox="0 0 851.39 222.94"><defs><style>.cls-1{fill:#3d83b7;}.cls-2{font-size:134.17px;fill:#3e3a8e;font-family:Advert;}</style></defs><g id="Capa_2" data-name="Capa 2"><g id="Capa_1-2" data-name="Capa 1"><path class="cls-1" d="M375.28,180.39c-1.35-.13-2.7-.23-4-.39-8.05-1-15.61-3.33-22.3-8a29.28,29.28,0,0,1-10.87-13.45,5.18,5.18,0,0,1-.34-1,2.79,2.79,0,0,0-1.8-2.12,104.79,104.79,0,0,1-19-12.74A47.1,47.1,0,0,1,305.19,127a61.4,61.4,0,0,1-6.06-20.64A47.34,47.34,0,0,1,303,80.93a40.27,40.27,0,0,1,7.84-11.19A56,56,0,0,1,342,53.49a53.73,53.73,0,0,1,10.45-.75c.12,0,.25,0,.42,0-1.42.38-2.81.68-4.15,1.13a57.12,57.12,0,0,0-21.64,13,45.77,45.77,0,0,0-14.63,33.2,62.31,62.31,0,0,0,4.36,23.73A44.68,44.68,0,0,0,325.28,137,76.29,76.29,0,0,0,336,146.83a3.62,3.62,0,0,0,.39.27c.66-2.19,1.2-4.44,2-6.59a38.24,38.24,0,0,1,15.08-19,25.6,25.6,0,0,1,9.74-3.86l.43-.11a6.72,6.72,0,0,0-4.79-5.69,19.6,19.6,0,0,0-5.4-.5,11.59,11.59,0,0,1-11.1-9.31,1.88,1.88,0,0,1,.48-1.67c.78-.86,1.65-1.65,2.4-2.54a18,18,0,0,0,2-2.77A31.29,31.29,0,0,1,354,86.76c1.06-.94,1.05-.93.43-2.16s-1.37-2.78-2.06-4.16c.94-.59,1.77-.55,4.69.17l-1-4.63c1.16.33,2.21.54,3.21.92a53.44,53.44,0,0,1,10.54,5.77A42.71,42.71,0,0,1,378,89c5.06,5.54,9.57,11.47,12,18.72a34.29,34.29,0,0,1,1.76,11.85A63.29,63.29,0,0,1,389.69,135a50,50,0,0,1-5.48,12.18c-1.34,2.24-2.7,4.47-3.89,6.79a13.8,13.8,0,0,0-1.1,9.33c.73,3.6,3.1,5.65,6.5,6.68a9.11,9.11,0,0,0,1.8.36,22,22,0,0,1-2.14-1.17c-1.95-1.35-2.61-3.39-3-5.61-.6-3.66.49-6.94,2.14-10.13,1.78-3.42,3.61-6.83,5.17-10.36a46.44,46.44,0,0,0,3.55-14.27,68.86,68.86,0,0,0,.07-13.39,37.74,37.74,0,0,0-5.71-16.35,75.42,75.42,0,0,0-8-10.3,41.65,41.65,0,0,0-9.21-7.58c-.3-.19-.54-.36-.52-.8a55.1,55.1,0,0,1,2.22-13.9,57.6,57.6,0,0,1,7.32-14.94,62.08,62.08,0,0,1,7.21-8.72,140.59,140.59,0,0,1,13.25-12.46c1-.83,2.18-1.55,3.28-2.3a4.4,4.4,0,0,1,.87-.43c1-.4,1.21-.2,1.17.88a43.3,43.3,0,0,0,.14,4.4,20.47,20.47,0,0,1,5.44-3.2c1-.41,2.09-.69,3.14-1a2.46,2.46,0,0,1,.77-.07c.61,0,.74.27.4.76a44,44,0,0,0-5,10.12.69.69,0,0,0,.15.63A25.39,25.39,0,0,1,416.55,47c1.52,2.18,2.92,4.44,4.28,6.72a3.69,3.69,0,0,0,1.92,1.72c2.1.78,4.2,1.56,6.34,2.24,1.81.57,3.65,1,5.49,1.48.64.16,1,.48,1,1.08a22.21,22.21,0,0,1,0,3.16,19.47,19.47,0,0,1-2.45,7.31A8.46,8.46,0,0,1,425,75.37c-2.64-.09-5.27-.5-7.91-.77-1.27-.13-2.53-.29-3.8-.4a4.31,4.31,0,0,0-4.16,2.2,11.76,11.76,0,0,0-1.71,6.86c0,3.7,1.44,7,3,10.23,1.41,3,2.89,6,4.19,9a21.37,21.37,0,0,1,2,10.45,51.11,51.11,0,0,1-2.16,10.31,128.65,128.65,0,0,1-6.67,16.49c-2.11,4.53-4.22,9.07-6.25,13.65a14.26,14.26,0,0,0-1.33,6.86c.23,3.28,2.13,5.23,5.43,5.45a19.75,19.75,0,0,0,7.18-1.13c3.13-1,6.25-2,9.41-2.84a126.54,126.54,0,0,1,21.76-3.94A82,82,0,0,1,467.83,159a89.62,89.62,0,0,1,16.76,5.51,84.91,84.91,0,0,1,14,7.2,24.63,24.63,0,0,1,6.76,6.15c.25.37.52.73.77,1.09v.13c-.28-.1-.56-.2-.83-.32a125,125,0,0,0-13.54-5.5,114,114,0,0,0-31.67-5.4c-5.71-.22-11.43-.12-17.14.17a95.05,95.05,0,0,0-17.4,2.07c-7.91,1.89-15.78,3.91-23.68,5.83q-8.14,2-16.31,3.84c-1.55.34-3.16.41-4.74.61Z"/><path class="cls-1" d="M428.4,140.64c1-2.57,2-5.13,3-7.71a219.18,219.18,0,0,0,10.71-38.62,124.93,124.93,0,0,0,2.09-25.38c-.25-7.86-1.36-15.58-4.39-22.9-4.52-10.92-11.74-19.5-22.27-25.09A42,42,0,0,0,399.18,16a36.17,36.17,0,0,0-15.26,2.56,34.75,34.75,0,0,0-13.8,10.45,50.93,50.93,0,0,0-8.56,15.65,47.62,47.62,0,0,0-2.77,12.8c0,.28,0,.56-.05.84,0,0,0,.08-.12.25-.21-.55-.42-1-.56-1.47a42.1,42.1,0,0,1-1.73-11,45,45,0,0,1,1.81-15,32.6,32.6,0,0,1,7.95-13.62,33.47,33.47,0,0,1,10-6.89A65.55,65.55,0,0,1,395.39,5,55.72,55.72,0,0,1,426,9.83c9.58,4.4,16.4,11.54,21.17,20.78a65.55,65.55,0,0,1,7.21,27.92,93.39,93.39,0,0,1-2,21.93,164,164,0,0,1-7.64,25.86,242.38,242.38,0,0,1-15.9,33.82l-.33.55Z"/><text class="cls-2" transform="translate(0 152.32) scale(1.41 1)">Ad</text><text class="cls-2" transform="translate(442.03 152.32) scale(1.41 1)">pnate</text></g></g></svg>