<svg xmlns="http://www.w3.org/2000/svg" viewBox="0 0 207.35 175.84"><defs><style>.cls-1{fill:#3d83b7;}</style></defs><g id="Capa_2" data-name="Capa 2"><g id="Capa_1-2" data-name="Capa 1"><path class="cls-1" d="M76.47,175.84c-1.35-.13-2.71-.23-4-.39-8-1-15.61-3.33-22.3-8A29.15,29.15,0,0,1,39.25,154a5.18,5.18,0,0,1-.34-1,2.79,2.79,0,0,0-1.8-2.12,104.44,104.44,0,0,1-19-12.74A47.26,47.26,0,0,1,6.37,122.43a61.62,61.62,0,0,1-6-20.64A47.34,47.34,0,0,1,4.23,76.38a40.27,40.27,0,0,1,7.84-11.19A56,56,0,0,1,43.23,48.94a53.73,53.73,0,0,1,10.45-.75c.12,0,.25,0,.42.05-1.42.38-2.81.68-4.15,1.13a57.12,57.12,0,0,0-21.64,13,45.66,45.66,0,0,0-14.63,33.2A62.12,62.12,0,0,0,18,119.28a44.81,44.81,0,0,0,8.43,13.12,76.29,76.29,0,0,0,10.68,9.88,3.62,3.62,0,0,0,.39.27c.66-2.19,1.2-4.44,2-6.59a38.2,38.2,0,0,1,15.08-19,25.78,25.78,0,0,1,9.74-3.87,3,3,0,0,0,.43-.11A6.74,6.74,0,0,0,60,107.3a20,20,0,0,0-5.4-.49,11.58,11.58,0,0,1-11.1-9.31A1.85,1.85,0,0,1,44,95.83c.78-.86,1.65-1.65,2.4-2.54a18,18,0,0,0,2-2.77,31.13,31.13,0,0,1,6.84-8.31c1.06-.94,1.05-.93.43-2.16s-1.38-2.78-2.06-4.16c.93-.59,1.77-.56,4.69.17l-1-4.63c1.16.32,2.21.54,3.2.92a53.24,53.24,0,0,1,10.55,5.77,42.71,42.71,0,0,1,8.14,6.37c5,5.54,9.57,11.47,12,18.72A34.07,34.07,0,0,1,93,115.06a63.29,63.29,0,0,1-2.08,15.42,50.36,50.36,0,0,1-5.48,12.18c-1.34,2.24-2.7,4.47-3.9,6.79a13.8,13.8,0,0,0-1.09,9.33c.73,3.6,3.1,5.65,6.5,6.68a9.11,9.11,0,0,0,1.8.36,23.41,23.41,0,0,1-2.15-1.17c-1.94-1.35-2.61-3.39-3-5.61-.59-3.66.5-6.94,2.15-10.13,1.78-3.42,3.61-6.83,5.17-10.36a46.14,46.14,0,0,0,3.54-14.27,68.08,68.08,0,0,0,.08-13.39,37.74,37.74,0,0,0-5.71-16.35,75.42,75.42,0,0,0-8-10.3,41.65,41.65,0,0,0-9.21-7.58c-.3-.19-.54-.36-.52-.8A55.1,55.1,0,0,1,73.27,62,57.89,57.89,0,0,1,80.58,47,62.85,62.85,0,0,1,87.8,38.3a140.59,140.59,0,0,1,13.25-12.46c1-.83,2.17-1.55,3.28-2.3a4.4,4.4,0,0,1,.87-.43c1-.4,1.2-.2,1.17.88a43,43,0,0,0,.14,4.39A20.54,20.54,0,0,1,112,25.19c1-.41,2.09-.69,3.14-1a2.46,2.46,0,0,1,.77-.07c.61,0,.74.27.39.76a44.39,44.39,0,0,0-5,10.12.69.69,0,0,0,.15.63,25.39,25.39,0,0,1,6.35,6.84c1.52,2.18,2.92,4.44,4.28,6.72a3.69,3.69,0,0,0,1.92,1.72c2.1.78,4.2,1.56,6.34,2.24,1.8.57,3.65,1,5.49,1.48a1.07,1.07,0,0,1,1,1.08,22.21,22.21,0,0,1,0,3.16,19.47,19.47,0,0,1-2.45,7.31,8.46,8.46,0,0,1-8.14,4.65c-2.64-.09-5.28-.5-7.91-.77-1.27-.13-2.53-.29-3.8-.4a4.33,4.33,0,0,0-4.17,2.2,11.75,11.75,0,0,0-1.7,6.86c0,3.7,1.44,7,3,10.23,1.41,3,2.89,6,4.19,9a21.37,21.37,0,0,1,2,10.45,51.11,51.11,0,0,1-2.16,10.31,129.24,129.24,0,0,1-6.67,16.49c-2.12,4.53-4.22,9.07-6.25,13.65a14.26,14.26,0,0,0-1.33,6.86,5.36,5.36,0,0,0,5.42,5.45,19.77,19.77,0,0,0,7.19-1.13c3.13-1,6.25-2,9.41-2.84a126.37,126.37,0,0,1,21.76-3.94A82,82,0,0,1,169,154.46,89.62,89.62,0,0,1,185.78,160a84.91,84.91,0,0,1,14,7.2,24.63,24.63,0,0,1,6.76,6.15c.25.37.51.73.77,1.09v.13c-.28-.1-.56-.2-.83-.32a125,125,0,0,0-13.54-5.5,114,114,0,0,0-31.67-5.4c-5.71-.23-11.43-.12-17.15.17a95,95,0,0,0-17.39,2.07c-7.91,1.89-15.78,3.91-23.68,5.83q-8.15,2-16.31,3.84c-1.55.34-3.16.41-4.74.61Z"/><path class="cls-1" d="M129.58,136.09c1-2.57,2-5.13,3-7.71A219.18,219.18,0,0,0,143.3,89.76a124.93,124.93,0,0,0,2.09-25.38c-.25-7.87-1.36-15.58-4.39-22.9-4.52-10.92-11.74-19.5-22.28-25.09a42,42,0,0,0-18.35-4.91,36.33,36.33,0,0,0-15.26,2.57A34.75,34.75,0,0,0,71.31,24.5a51.16,51.16,0,0,0-8.57,15.65A48,48,0,0,0,60,53c0,.28,0,.56,0,.84,0,0,0,.08-.12.25-.21-.55-.42-1-.56-1.47a42.53,42.53,0,0,1-1.74-11,45,45,0,0,1,1.82-15,32.6,32.6,0,0,1,8-13.62A33.47,33.47,0,0,1,77.31,6,65.55,65.55,0,0,1,96.58.43a55.72,55.72,0,0,1,30.6,4.85c9.58,4.4,16.4,11.54,21.17,20.78A65.54,65.54,0,0,1,155.56,54a93.44,93.44,0,0,1-2.05,21.94,163.17,163.17,0,0,1-7.63,25.86A242.38,242.38,0,0,1,130,135.59l-.33.55Z"/></g></g></svg>