<svg xmlns="http://www.w3.org/2000/svg" viewBox="0 0 358.66 280.56"><defs><style>.cls-1{font-size:82.02px;fill:#3e3a8e;font-family:Advert;}.cls-2{fill:#3d83b7;}</style></defs><g id="Capa_2" data-name="Capa 2"><g id="Capa_1-2" data-name="Capa 1"><text class="cls-1" transform="translate(0 237.39) scale(1.06 1)">Adopnate</text><path class="cls-2" d="M152.12,175.84c-1.35-.13-2.7-.23-4.05-.39-8-1-15.61-3.33-22.3-8A29.19,29.19,0,0,1,114.91,154a4.6,4.6,0,0,1-.35-1,2.78,2.78,0,0,0-1.79-2.12,104.52,104.52,0,0,1-19-12.74A47.23,47.23,0,0,1,82,122.43,61.4,61.4,0,0,1,76,101.79a47.43,47.43,0,0,1,3.91-25.41,40.1,40.1,0,0,1,7.85-11.19,56,56,0,0,1,31.15-16.25,53.85,53.85,0,0,1,10.45-.75c.13,0,.25,0,.43.05-1.43.38-2.82.68-4.16,1.13a57.12,57.12,0,0,0-21.64,13,45.77,45.77,0,0,0-14.63,33.2,62.31,62.31,0,0,0,4.36,23.73,44.81,44.81,0,0,0,8.43,13.12,76.29,76.29,0,0,0,10.68,9.88c.17.13.35.24.39.27.66-2.19,1.2-4.44,2-6.59a38.22,38.22,0,0,1,15.09-19A25.71,25.71,0,0,1,140,113.1a3.39,3.39,0,0,0,.43-.11,6.75,6.75,0,0,0-4.8-5.69,19.92,19.92,0,0,0-5.39-.49,11.58,11.58,0,0,1-11.1-9.31,1.87,1.87,0,0,1,.47-1.67c.78-.86,1.66-1.65,2.4-2.54a18,18,0,0,0,2-2.77,31.33,31.33,0,0,1,6.84-8.31c1.07-.94,1.06-.93.43-2.16s-1.37-2.78-2.05-4.16c.93-.59,1.76-.56,4.68.17l-1-4.63c1.15.32,2.21.54,3.2.92a52.88,52.88,0,0,1,10.54,5.77,42.78,42.78,0,0,1,8.15,6.37c5.05,5.54,9.57,11.47,12,18.72a34.06,34.06,0,0,1,1.76,11.85,63.28,63.28,0,0,1-2.07,15.42,50.39,50.39,0,0,1-5.49,12.18c-1.34,2.24-2.7,4.47-3.89,6.79a13.8,13.8,0,0,0-1.1,9.33c.74,3.6,3.11,5.65,6.5,6.68a9.26,9.26,0,0,0,1.8.36,22,22,0,0,1-2.14-1.17c-1.95-1.35-2.61-3.39-3-5.61-.6-3.66.49-6.94,2.15-10.13,1.77-3.42,3.6-6.83,5.16-10.36a46.16,46.16,0,0,0,3.55-14.27,68.86,68.86,0,0,0,.08-13.39,37.88,37.88,0,0,0-5.72-16.35,76.14,76.14,0,0,0-8-10.3,41.93,41.93,0,0,0-9.22-7.58c-.29-.19-.54-.36-.52-.8A55.56,55.56,0,0,1,148.92,62,57.92,57.92,0,0,1,156.24,47a62.78,62.78,0,0,1,7.21-8.72A140.59,140.59,0,0,1,176.7,25.84c1-.83,2.18-1.55,3.28-2.3a4.69,4.69,0,0,1,.87-.43c1-.4,1.21-.2,1.18.88a40.31,40.31,0,0,0,.13,4.39,20.6,20.6,0,0,1,5.45-3.19c1-.41,2.08-.69,3.13-1a2.49,2.49,0,0,1,.77-.07c.61,0,.74.27.4.76a43.58,43.58,0,0,0-5,10.12.69.69,0,0,0,.14.63,25.58,25.58,0,0,1,6.36,6.84c1.51,2.18,2.91,4.44,4.27,6.72a3.73,3.73,0,0,0,1.92,1.72c2.1.78,4.21,1.56,6.34,2.24,1.81.57,3.65,1,5.5,1.48a1.06,1.06,0,0,1,1,1.08,22.21,22.21,0,0,1,0,3.16A19.63,19.63,0,0,1,210,66.17a8.48,8.48,0,0,1-8.14,4.65c-2.65-.09-5.28-.5-7.92-.77-1.27-.13-2.53-.29-3.8-.4a4.32,4.32,0,0,0-4.16,2.2,11.76,11.76,0,0,0-1.71,6.86c0,3.7,1.44,7,3,10.23,1.41,3,2.89,6,4.19,9a21.38,21.38,0,0,1,2,10.45,51.82,51.82,0,0,1-2.17,10.31,129.24,129.24,0,0,1-6.67,16.49c-2.11,4.53-4.22,9.07-6.25,13.65a14.26,14.26,0,0,0-1.33,6.86c.23,3.28,2.13,5.23,5.43,5.45a19.71,19.71,0,0,0,7.18-1.13c3.13-1,6.25-2,9.42-2.84a126.43,126.43,0,0,1,21.75-3.94,82,82,0,0,1,23.92,1.18A89.76,89.76,0,0,1,261.43,160a84.91,84.91,0,0,1,14,7.2,24.35,24.35,0,0,1,6.76,6.15l.78,1.09v.13c-.28-.1-.57-.2-.84-.32a125,125,0,0,0-13.54-5.5,114,114,0,0,0-31.66-5.4c-5.72-.23-11.44-.12-17.15.17a95.05,95.05,0,0,0-17.4,2.07c-7.91,1.89-15.78,3.91-23.68,5.83q-8.15,2-16.31,3.84c-1.54.34-3.15.41-4.73.61Z"/><path class="cls-2" d="M205.24,136.09c1-2.57,2-5.13,3-7.71A219.21,219.21,0,0,0,219,89.76,125.64,125.64,0,0,0,221,64.38c-.24-7.87-1.36-15.58-4.39-22.9-4.52-10.92-11.73-19.5-22.27-25.09A42,42,0,0,0,176,11.48a36.38,36.38,0,0,0-15.27,2.57A34.79,34.79,0,0,0,147,24.5a50.74,50.74,0,0,0-8.57,15.65A48,48,0,0,0,135.63,53c0,.28,0,.56,0,.84,0,0,0,.08-.12.25-.21-.55-.41-1-.56-1.47a42.1,42.1,0,0,1-1.73-11,45,45,0,0,1,1.81-15,32.62,32.62,0,0,1,8-13.62A33.3,33.3,0,0,1,153,6,65.64,65.64,0,0,1,172.23.43a55.75,55.75,0,0,1,30.61,4.85c9.58,4.4,16.39,11.54,21.16,20.78A65.55,65.55,0,0,1,231.22,54a94,94,0,0,1-2.05,21.94,163.21,163.21,0,0,1-7.64,25.86,240.13,240.13,0,0,1-15.9,33.82c-.1.19-.22.37-.32.55Z"/></g></g></svg>